<?xml version="1.0" encoding="UTF-8"?> <svg xmlns="http://www.w3.org/2000/svg" width="767" height="914" viewBox="0 0 767 914" fill="none"> <path fill-rule="evenodd" clip-rule="evenodd" d="M379.197 10.018C450.499 9.1274 520.448 41.3947 575.481 97.1493C628.413 150.776 649.898 232.782 676.034 310.751C704.65 396.117 751.303 481.297 734.411 571.264C717.064 663.656 650.092 726.497 587.557 781.981C525.209 837.3 456.004 882.178 379.197 886.431C300.034 890.814 216.066 870.434 156.741 805.836C99.6747 743.696 88.4303 643.592 72.1037 552.038C57.3824 469.486 46.9988 385.479 67.3877 304.77C87.9638 223.319 130.797 153.999 185.788 102.017C241.965 48.9125 308.341 10.9029 379.197 10.018Z" stroke="#ADAE9B" stroke-width="20"></path> <path fill-rule="evenodd" clip-rule="evenodd" d="M324.197 36.018C395.499 35.1274 465.448 67.3947 520.481 123.149C573.413 176.776 594.898 258.782 621.034 336.751C649.65 422.117 696.303 507.297 679.411 597.264C662.064 689.656 595.092 752.497 532.557 807.981C470.209 863.3 401.004 908.178 324.197 912.431C245.034 916.814 161.066 896.434 101.741 831.836C44.6747 769.696 33.4303 669.592 17.1037 578.038C2.38244 495.486 -8.0012 411.479 12.3877 330.77C32.9638 249.319 75.7972 179.999 130.788 128.017C186.965 74.9125 253.341 36.9029 324.197 36.018Z" stroke="white" stroke-width="2"></path> <path fill-rule="evenodd" clip-rule="evenodd" d="M407.197 87.0161C478.499 86.2199 548.448 115.066 603.481 164.908C656.413 212.847 677.898 286.158 704.034 355.858C732.65 432.172 779.303 508.319 762.411 588.746C745.064 671.34 678.092 727.517 615.557 777.118C553.209 826.571 484.004 866.689 407.197 870.491C328.034 874.41 244.066 856.191 184.741 798.443C127.675 742.892 116.43 653.404 100.104 571.559C85.3824 497.76 74.9988 422.662 95.3877 350.511C115.964 277.698 158.797 215.729 213.788 169.259C269.965 121.786 336.341 87.8072 407.197 87.0161Z" stroke="white" stroke-width="2"></path> </svg> 