<?xml version="1.0" encoding="UTF-8"?> <svg xmlns="http://www.w3.org/2000/svg" width="538" height="491" viewBox="0 0 538 491" fill="none"> <path fill-rule="evenodd" clip-rule="evenodd" d="M269.534 4.55031C268.571 7.3748 265.912 11.6922 263.624 14.1448L259.467 18.606L251.439 15.8454C232.236 9.24333 204.472 7.10109 186.727 10.8513C162.057 16.0661 129.304 38.9002 117.869 58.8577C114.562 64.6271 113.523 64.7022 103.19 59.9189L97.8758 57.4571L99.8996 62.8312C101.014 65.7858 101.897 70.3514 101.864 72.9767C101.803 77.6533 101.61 77.8134 92.099 81.0162C65.4382 89.9969 42.2079 107.768 31.7211 127.206C23.3058 142.804 19.3204 160.174 20.0069 178.273C20.2943 185.877 20.9813 193.096 21.5343 194.316C22.7363 196.97 16.3488 200.412 9.35653 200.88C4.9893 201.171 2.82723 203.247 6.88121 203.257C7.99935 203.26 11.9762 205.812 15.718 208.929L22.5227 214.597L18.543 220.229C13.8468 226.875 6.90544 241.856 3.46903 252.757C0.0611121 263.57 -0.733534 283.992 1.93266 292.209C8.92393 313.751 18.0416 328.409 33.2256 342.513L44.9067 353.36L40.7846 359.167C38.5176 362.359 35.8662 365.211 34.8911 365.504C33.916 365.795 38.5136 366.024 45.1069 366.009L57.0942 365.983L58.9079 374.414C67.8328 415.89 90.3171 440.127 131.027 452.152C142.924 455.666 155.467 457.728 165.089 457.751C172.351 457.768 172.636 457.91 173.467 461.886C173.941 464.15 174.342 467.853 174.358 470.117L174.389 474.231L176.759 471.188C178.064 469.513 181.84 466.467 185.153 464.417L191.177 460.69L201.169 467.845C213.148 476.42 233.573 485.931 246.496 488.949C274.754 495.552 318.418 484.983 340.469 466.2C342.245 464.688 344.111 463.451 344.615 463.452C346.395 463.456 353.14 468.975 355.629 472.462L358.146 475.993L358.229 470.068C358.275 466.81 358.986 462.014 359.811 459.41L361.31 454.675L376.158 453.885C394.511 452.908 410.879 449.29 425.153 443.056C450.417 432.022 476.092 399.225 480.418 372.463L481.451 366.069L490.628 366.623C499.803 367.178 499.805 367.176 497.126 364.476C495.652 362.991 493.046 359.184 491.332 356.016L488.218 350.257L498.41 341.901C523.178 321.598 536.732 297.063 537.084 271.896C537.314 255.454 529.243 227.363 521.347 217.12L518.378 213.27L524.01 208.896C527.107 206.49 530.509 204.525 531.572 204.527C535.52 204.537 533.36 202.448 529.107 202.142C522.144 201.642 511.551 196.586 512.566 194.245C513.037 193.158 514.122 186.676 514.977 179.843C517.875 156.678 512.924 133.442 501.744 117.714C490.145 101.4 465.518 83.2041 446.745 77.0758C440.217 74.9441 439.337 74.2152 439.373 70.9724C439.395 68.9475 440.38 65.237 441.562 62.729C443.992 57.5697 443.724 57.3295 438.785 60.2404C436.848 61.3825 432.327 63.1109 428.737 64.0804L422.213 65.8447L418.34 59.6669C408.384 43.7839 390.083 26.1704 375.664 18.5925C363.177 12.0304 350.414 9.09764 330.611 8.23996C312.245 7.44369 293.528 9.71828 284.719 13.8167C282.436 14.879 279.935 15.389 279.162 14.9487C277.407 13.953 273.382 6.82293 272.183 2.59099C271.358 -0.329991 271.145 -0.17251 269.534 4.55031ZM285.291 24.7001C304.319 46.9341 307.116 61.4818 296.739 84.249C292.637 93.2501 284.115 105.198 281.846 105.13C281.05 105.107 278.693 103.706 276.607 102.016L272.815 98.9426L276.931 91.1963C286.158 73.8285 288.904 51.5037 282.839 43.1613C276.582 34.5551 265.402 34.7821 258.038 43.6647C252.246 50.6513 254.83 73.0943 263.494 91.065L267.274 98.9068L263.254 102.014C261.044 103.722 258.678 105.119 257.997 105.117C256.01 105.113 245.835 89.3383 242.261 80.7214C239.806 74.8012 238.984 70.0014 238.987 61.6223C238.993 51.8766 239.535 49.4513 243.178 42.8493C245.48 38.6798 251.657 30.4 256.906 24.4497C262.154 18.4993 267.455 11.9158 268.686 9.81875L270.922 6.00461L273.945 10.4898C275.607 12.9559 280.713 19.3514 285.291 24.7001ZM346.812 14.6201C356.171 16.1266 357.446 17.0145 353.966 19.6091C352.551 20.6655 349.817 20.705 344.353 19.7477C328.854 17.0335 312.707 18.0121 288.381 23.1421C286.411 23.5573 285.008 23.026 284.442 21.6513C281.867 15.3819 322.851 10.7623 346.812 14.6201ZM186.548 18.9232C189.752 21.5866 193.99 26.3183 195.965 29.4396C199.349 34.7894 199.452 35.5388 197.775 42.5485C196.794 46.6369 196.355 52.7266 196.797 56.0811C197.595 62.1448 197.584 62.1606 195.184 58.883C193.857 57.0694 189.28 52.4645 185.014 48.6491C177.713 42.1207 177.216 41.2571 176.568 33.9548C175.785 25.138 177.345 14.0741 179.368 14.079C180.114 14.0808 183.345 16.2611 186.548 18.9232ZM242.208 18.7841C249.338 20.7316 255.471 22.6003 255.835 22.9356C256.199 23.2709 255.55 24.3805 254.39 25.4008C252.573 27.0013 250.597 26.7833 240.01 23.8149C230.012 21.0113 224.305 20.3036 209.227 19.9998C196.302 19.7381 190.014 19.0896 188.385 17.848C186.299 16.2591 186.499 15.9738 190.271 15.1653C192.591 14.6667 202.309 14.4809 211.866 14.7515C225.429 15.1346 232.086 16.0197 242.208 18.7841ZM365.445 19.1457C365.942 21.6867 366.046 27.8883 365.678 32.9275C365.024 41.8738 364.858 42.2052 358.651 46.9775C355.156 49.6668 350.488 54.0991 348.278 56.8297L344.261 61.7916L343.618 48.338L342.975 34.8831L348.222 27.9176C353.013 21.558 361.006 14.5689 363.523 14.5394C364.084 14.5329 364.949 16.6061 365.445 19.1457ZM348.721 21.9163C349.608 22.7334 348.805 24.763 346.479 27.5855C344.487 30.0033 342.636 32.5623 342.368 33.2727C342.1 33.983 339.86 32.7044 337.392 30.4325C334.923 28.1593 332.278 26.299 331.515 26.2972C329.067 26.2913 318.49 36.65 315.803 41.6862C312.341 48.1741 311.42 56.0032 313.329 62.7029C315.067 68.8018 324.028 80.5587 330.471 85.1944C334.411 88.0294 335.273 88.1302 344.998 86.9017C360.193 84.9819 371.679 79.1692 376.466 70.9768C379.85 65.1839 381.728 55.5362 380.803 48.6874L379.93 42.214L373.053 42.1974L366.176 42.1807L366.983 35.9287C367.428 32.4907 367.999 29.4612 368.251 29.1985C371.392 25.9382 407.616 61.1037 407.548 67.3457C407.543 67.8144 404.759 68.9426 401.364 69.8547C385.481 74.1217 373.476 83.0247 366.621 95.6214L363.464 101.423L355.207 101.403C339.398 101.365 320.902 95.2579 307.985 85.814L300.656 80.4547L302.742 72.1057C306.255 58.0499 303.466 46.121 293.514 32.6475L287.823 24.9406L295.433 23.0222C299.621 21.9659 304.678 20.8221 306.673 20.4807C312.926 19.407 347.268 20.579 348.721 21.9163ZM174.838 23.2582C174.82 24.9553 172.859 26.7596 169.214 28.4321C155.79 34.5944 134.719 52.6682 128.286 63.5399C127.143 65.4725 125.694 66.159 123.748 65.6908C120.917 65.0098 120.919 64.9519 123.97 59.5558C128.441 51.655 153.467 29.9805 163.957 24.9263C174.283 19.9508 174.875 19.8587 174.838 23.2582ZM238.189 24.7427C244.743 26.3715 250.101 28.2119 250.094 28.832C250.087 29.4508 248.072 32.7889 245.617 36.247C236.249 49.442 234.515 62.3369 239.966 78.2841C240.8 80.7205 239.376 82.0601 229.884 87.771C216.943 95.5552 203.707 99.6403 188.242 100.625L177.139 101.331L174 95.5487C166.317 81.3894 156.188 73.864 137.902 68.7283L127.784 65.8862L134.276 58.039C142.416 48.2037 153.027 39.3052 164.741 32.495C169.733 29.5933 173.944 27.3705 174.1 27.5552C174.257 27.7399 174.753 31.1512 175.202 35.1351L176.019 42.3786L169.017 41.9179C162.158 41.4668 161.996 41.5428 161.038 45.6839C157.439 61.2589 164.635 76.0424 178.901 82.385C182.268 83.8822 189.867 85.7439 195.786 86.5232L206.548 87.9383L213.444 81.8406C233.033 64.5203 234.07 45.8753 216.32 30.1762C212.085 26.4306 210.878 25.9814 208.337 27.2036C206.692 27.9962 204.251 29.9705 202.915 31.592C201.339 33.5026 200.253 33.9739 199.824 32.9341C199.46 32.0524 197.65 29.2686 195.799 26.7493C192.8 22.6644 192.7 22.0954 194.876 21.5016C200.579 19.946 226.777 21.9054 238.189 24.7427ZM379.954 27.585C390.435 34.3476 400.789 44.5344 409.605 56.7518C415.396 64.7775 416.036 67.3228 412.255 67.2966C410.739 67.2863 407.43 63.9749 404.018 59.0555C397.246 49.2934 382.122 34.8014 373.559 29.8723C369.7 27.651 367.453 25.3849 367.471 23.7339C367.486 22.2948 368.048 21.1191 368.72 21.1207C369.392 21.1224 374.447 24.0312 379.954 27.585ZM219.097 34.8912C227.334 45.1783 229.324 56.0177 224.724 65.5377C221.792 71.6016 210.674 83.9366 208.145 83.9304C205.211 83.9233 200.209 67.8219 199.478 56.0231C198.657 42.7692 199.957 37.4281 205.345 31.9257C209.486 27.6962 209.995 27.5223 212.979 29.3189C214.737 30.3764 217.491 32.8847 219.097 34.8912ZM336.772 32.3164C341.557 37.929 343.065 44.3841 342.113 55.1756C341.276 64.6586 336.228 80.7475 333.201 83.5749C332.279 84.4364 329.811 82.8439 326.035 78.9507C310.949 63.4055 310.062 49.0876 323.291 34.6208C329.257 28.0955 332.675 27.5113 336.772 32.3164ZM210.355 32.612C211.065 33.7131 213.469 37.0842 215.695 40.1008C223.094 50.133 222.479 61.0149 213.873 72.3395C209.053 78.6845 208.938 79.0226 212.623 76.0415C225.317 65.7748 225.158 43.676 212.315 33.25C210.43 31.7195 209.606 31.4515 210.355 32.612ZM326.37 36.4702C320.148 43.8112 317.218 54.0357 319.2 61.49C320.809 67.5412 328.537 78.9554 331.029 78.9614C331.761 78.9632 330.596 77.0342 328.438 74.6761C317.915 63.1709 318.152 48.7293 329.073 35.908C331.107 33.5206 332.248 31.5866 331.61 31.6114C330.971 31.6361 328.614 33.8226 326.37 36.4702ZM279.781 42.4982C284.388 46.7397 284.651 47.4882 284.556 56.1238C284.501 61.1492 283.145 69.7396 281.544 75.213C278.211 86.6109 271.622 99.0438 269.542 97.863C264.377 94.9302 256.858 71.4679 256.588 57.4385C256.39 47.1143 258.309 42.9768 264.808 39.7299C270.362 36.9547 274.613 37.7405 279.781 42.4982ZM176.458 44.8181C182.082 46.9897 192.016 56.691 195.954 63.8564C199.034 69.4622 204.602 82.6171 204.584 84.251C204.568 85.8901 193.898 85.3363 186.604 83.3174C169.01 78.4467 159.511 64.8965 162.356 48.7286C163.28 43.4787 163.712 43.0071 167.591 43.0165C169.915 43.0221 173.906 43.8336 176.458 44.8181ZM378.704 53.0733C378.424 72.7076 366.973 83.2775 343.915 85.1901L334.786 85.9461L338.592 77.0009C347.319 56.4904 360.785 43.4843 373.265 43.5145L378.841 43.528L378.704 53.0733ZM166.027 50.7598C165.436 64.7292 174.477 76.6245 188.596 80.4572C196.945 82.7223 203.294 83.2985 198.1 81.3189C196.513 80.7134 192.413 79.5237 188.987 78.6754C185.56 77.8258 180.251 75.0467 177.186 72.4995C171.286 67.5965 168.923 62.6337 167.28 51.7029L166.271 44.9883L166.027 50.7598ZM373.836 53.4881C371.591 69.4943 363.417 77.1584 344.584 80.9152C342.295 81.3718 340.786 82.0805 341.23 82.4897C342.896 84.0237 356.875 79.9496 362.482 76.2964C369.825 71.5137 374.055 64.1955 375.332 54.0684C375.879 49.717 375.999 46.1544 375.597 46.1535C375.195 46.1525 374.403 49.4527 373.836 53.4881ZM265.733 51.2356C264.286 53.6442 264.496 54.5505 267.042 56.895C270.963 60.5055 275.115 58.5209 275.176 53.0083C275.21 49.8577 274.548 49.1306 271.336 48.7844C268.544 48.4841 266.972 49.1715 265.733 51.2356ZM274.163 53.3113C274.699 56.986 270.053 58.7061 267.68 55.7103C265.307 52.7145 266.969 49.6178 270.684 50.1087C272.528 50.3528 273.918 51.632 274.163 53.3113ZM124.386 67.2473C133.923 69.2572 144.987 72.3043 148.972 74.0177C166.567 81.5836 177.777 98.9034 180.286 122.397L181.233 131.264L174.778 131.249L168.321 131.233L166.602 123.921C164.107 113.306 154.419 96.2623 146.673 88.8625C140.614 83.073 139.33 82.4472 133.498 82.433C125.923 82.4147 121.671 84.7151 119.098 90.2243C116.027 96.7974 118.212 102.928 126.542 111.104C134.587 119.003 151.855 130.094 159.907 132.537C165.067 134.103 165.315 135.086 162.518 142.904C160.67 148.071 131.307 136.863 119.629 126.53C107.558 115.851 104.31 105.465 102.842 72.8461C102.377 62.5226 102.565 61.4697 104.685 62.4755C105.983 63.0909 114.848 65.2374 124.386 67.2473ZM437.449 81.1941C436.533 92.0673 434.672 103.358 432.913 108.732C430.323 116.644 428.741 118.91 420.88 125.967C411.458 134.425 404.398 138.323 390.997 142.467C380.875 145.599 376.278 145.639 376.286 142.599C376.289 141.331 375.936 139.044 375.501 137.516C374.847 135.213 375.755 134.361 380.783 132.552C396.232 126.992 415.807 112.5 420.508 103.142C425.824 92.5614 419.758 83.1262 407.621 83.0968C401.558 83.0821 400.418 83.6416 393.599 89.9752C385.096 97.8742 375.916 113.386 373.27 124.331L371.482 131.725L365.264 131.71L359.045 131.695L359.123 126.758C359.363 111.922 368.06 92.3149 378.599 82.8541C386.381 75.8684 396.198 71.9515 415.625 68.0789C424.341 66.341 433.109 64.3557 435.108 63.6666C437.107 62.9763 438.801 62.4919 438.874 62.5895C438.945 62.6858 438.304 71.0581 437.449 81.1941ZM448.786 83.2479C460.668 87.927 474.66 97.4209 485.919 108.446C491.9 114.302 496.422 119.633 495.966 120.292C494.194 122.852 490.054 121.131 485.951 116.131C479.462 108.221 461.85 95.5742 449.174 89.7201C440.905 85.9015 438.093 83.9645 438.72 82.5191C439.829 79.9622 440.58 80.0167 448.786 83.2479ZM245.005 89.647C246.913 93.4356 248.721 96.9817 249.022 97.5249C249.324 98.0681 245.77 98.5137 241.122 98.513C222.805 98.5108 200.576 106.341 188.547 117.033C184.493 120.638 182.329 121.805 181.979 120.581C181.693 119.577 180.533 115.052 179.402 110.523L177.348 102.289L184.152 102.305C199.831 102.343 217.096 97.3054 231.028 88.627C236.009 85.5239 240.412 82.9329 240.811 82.8706C241.21 82.8084 243.097 85.857 245.005 89.647ZM306.903 86.8121C317.819 95.627 338.764 102.68 354.139 102.717C358.605 102.728 362.25 103.182 362.239 103.724C362.229 104.266 361.613 106.784 360.87 109.316C360.128 111.849 359.088 115.598 358.558 117.646L357.595 121.371L351.737 116.501C339.269 106.138 311.563 97.5184 296.607 99.3505C292.708 99.8269 289.779 99.7092 290.098 99.0859C293.955 91.5548 299.628 82.8353 300.668 82.8378C301.394 82.8396 304.198 84.6278 306.903 86.8121ZM101.726 86.3745C101.705 88.2401 100.234 89.5334 96.9726 90.5512C84.1697 94.5491 62.6251 107.059 53.7171 115.668C51.7643 117.554 48.5971 119.093 46.678 119.089L43.1875 119.08L47.8527 113.804C56.0583 104.522 74.7135 92.9304 91.3536 86.7746C101.458 83.0362 101.762 83.0237 101.726 86.3745ZM140.867 85.7556C149.067 89.6504 163.672 113.768 165.857 127.024C166.991 133.897 165.879 134.009 153.835 128.227C134.626 119.005 118.911 104.196 119.007 95.4076C119.029 93.4327 120.754 89.9979 122.841 87.7752C127.195 83.1367 133.796 82.3969 140.867 85.7556ZM416.376 87.0376C420.63 90.1144 421.903 94.9548 420.025 100.917C418.095 107.047 399.873 122.122 387.116 128.143C381.393 130.844 375.904 133.052 374.916 133.05C368.613 133.035 383.608 100.751 394.777 90.2914C400.198 85.2144 401.881 84.3996 406.917 84.4118C410.548 84.4205 414.132 85.4154 416.376 87.0376ZM457.702 95.4523C466.399 100.251 480.821 111.823 485.227 117.537L488.164 121.349L482.216 122.787C478.943 123.577 475.363 124.536 474.261 124.917C472.759 125.434 472.161 124.007 471.879 119.243L471.502 112.876L462.825 113.137C450.362 113.511 439.608 118.701 433.735 127.178C429.662 133.056 429.216 134.795 428.638 147.011L428.003 160.402L432.64 163.991C442.121 171.327 451.173 174.595 462.241 174.681C471.168 174.75 473.409 174.249 479.665 170.789C483.815 168.493 488.914 164.063 491.755 160.286L496.668 153.752L491.552 149.684L486.434 145.613L491.574 141.14C497.595 135.901 498.473 136.517 500.916 147.676C502.418 154.545 501.917 187.696 500.288 189.156C499.847 189.552 495.298 188.312 490.18 186.403C477.357 181.62 464.14 181.588 451.214 186.308L441.832 189.735L437.07 186.396C426.866 179.242 415.66 162.33 411.774 148.221C408.782 137.356 408.971 136.574 415.601 132.443C427.689 124.908 435.477 112.666 437.026 98.7609C438.387 86.538 438.241 86.7246 444.572 89.1362C447.565 90.277 453.473 93.1195 457.702 95.4523ZM103.067 96.1235C103.041 98.5381 104.324 104.486 105.919 109.34C108.229 116.37 110.329 119.575 116.247 125.094C120.332 128.905 125.266 133.004 127.212 134.202C130.66 136.328 130.704 136.573 128.935 143.962C125.909 156.606 117.447 170.184 106.391 180.136L96.5373 189.007L90.1369 186.487C72.7616 179.646 59.5174 180.166 40.1048 188.453C37.4636 189.581 34.8409 190.078 34.2774 189.555C33.7139 189.034 33.3613 181.698 33.4916 173.253C33.6756 161.357 34.511 155.451 37.2003 147.031C39.1097 141.053 41.1476 135.898 41.7291 135.575C42.3105 135.253 45.1926 137.257 48.1329 140.031L53.4801 145.073L48.2834 147.832C45.4235 149.348 43.0758 151.453 43.0642 152.508C43.0304 155.591 51.9025 165.439 58.6204 169.775C64.2166 173.386 65.8924 173.774 75.9124 173.787C85.4949 173.798 88.0789 173.268 94.877 169.892C99.2067 167.743 104.62 164.413 106.908 162.494C110.73 159.287 111.076 158.239 111.171 149.583C111.316 136.382 109.124 129.477 102.631 122.678C96.4035 116.158 89.2291 113.03 77.5906 111.756C69.9551 110.921 69.6137 111.018 68.1422 114.442C67.3039 116.393 66.6025 119.332 66.5846 120.97C66.5519 123.942 66.5418 123.944 59.2343 121.854L51.9154 119.76L61.704 111.539C68.474 105.851 75.9629 101.303 85.9977 96.7839C93.9773 93.1891 101.093 90.5822 101.81 90.9908C102.528 91.3981 103.094 93.7075 103.067 96.1235ZM130.894 94.5398C126.232 98.7246 131.884 105.024 137.762 102.193C142.722 99.8047 140.654 92.9835 134.967 92.9697C133.692 92.9666 131.859 93.6731 130.894 94.5398ZM401.738 95.1956C397.612 98.8999 401.528 105.107 407.007 103.544C408.603 103.09 410.335 101.535 410.854 100.091C412.643 95.1299 405.865 91.4914 401.738 95.1956ZM138.794 96.3732C139.263 97.5159 138.571 99.4194 137.254 100.601C135.036 102.591 134.686 102.59 132.512 100.59C129.581 97.8901 130.979 94.2767 134.952 94.2863C136.596 94.2903 138.324 95.2293 138.794 96.3732ZM409.638 97.0291C410.771 99.7849 406.868 103.167 403.803 102.087C401.391 101.236 400.555 97.4745 402.408 95.8121C404.231 94.1747 408.78 94.9415 409.638 97.0291ZM279.798 108.711C290.104 117.758 297.484 130.811 299.499 143.56C300.747 151.449 299.945 164.468 298.211 164.463C297.829 164.462 294.513 162.435 290.841 159.958C283.616 155.084 276.716 147.795 272.984 141.098C269.962 135.67 269.961 123.207 272.982 120.953C277.69 117.441 273.907 110.7 268.151 112.343C263.649 113.626 262.636 118.353 266.279 121.066C271.081 124.64 270.441 135.782 264.997 143.388C260.67 149.435 248.56 160.252 243.263 162.803C240.674 164.05 240.118 163.837 239.406 161.327C236.886 152.444 239.88 137.27 246.57 125.02C250.875 117.133 266.425 101.188 269.801 101.196C270.593 101.198 275.093 104.579 279.798 108.711ZM254.896 104.994C256.548 105.955 256.362 106.834 253.821 110.025C248.927 116.176 246.779 117.247 233.129 120.342C226.043 121.949 214.806 125.644 208.16 128.554C197.461 133.236 195.441 133.709 190.542 132.673C187.499 132.03 184.647 131.171 184.205 130.764C182.884 129.547 191.014 120.865 197.501 116.565C209.908 108.341 225.379 103.931 242.029 103.869C248.004 103.846 253.793 104.353 254.896 104.994ZM314.843 105.878C320.238 106.932 328.888 109.71 334.065 112.051C343.354 116.251 357.646 127.146 357.615 130.003C357.606 130.812 354.384 132.09 350.453 132.846C343.577 134.167 342.796 133.996 329.799 128.342C322.371 125.11 310.999 121.299 304.53 119.876C294.911 117.76 291.975 116.484 288.418 112.88C286.024 110.456 284.052 108.055 284.034 107.544C284.017 107.034 286.451 106.25 289.443 105.803C292.436 105.356 295.537 104.792 296.337 104.548C299.429 103.605 305.418 104.035 314.843 105.878ZM273.025 117.022C273 119.355 272.106 120.407 269.91 120.686C266.225 121.155 264.246 117.48 266.736 114.789C269.364 111.952 273.067 113.266 273.025 117.022ZM94.9832 118.613C104.295 123.901 108.678 131.831 109.45 144.786C110.301 159.05 109.291 159.869 98.3574 153.793C87.337 147.67 75.9532 137.707 72.2255 130.924C70.628 128.015 69.4569 123.203 69.4953 119.701L69.5625 113.571L78.8175 114.129C85.8767 114.556 89.712 115.618 94.9832 118.613ZM470.698 120.158C470.666 123.078 469.679 127.506 468.505 129.999C465.27 136.863 453.566 147.311 442.458 153.247C436.993 156.168 432.745 158.762 433.018 159.012C433.289 159.263 438.623 157.158 444.871 154.334C456.732 148.973 466.838 146.419 475.912 146.49C482.441 146.541 493.535 150.95 493.507 153.483C493.472 156.689 484.934 166.041 478.599 169.813C469.831 175.03 456.887 174.88 445.005 169.422C433.005 163.909 429.711 159.441 429.837 148.859C430.028 132.759 435.061 124.057 447.441 118.413C453.117 115.827 457.515 114.817 463.05 114.83L470.756 114.849L470.698 120.158ZM78.1998 118.412C86.9397 120.644 92.5718 123.481 97.1935 127.981C102.354 133.003 104.06 137.688 103.962 146.567C103.899 152.347 104.27 153.637 105.641 152.407C108.634 149.72 105.112 134.304 100.201 128.589C95.3271 122.917 82.3937 116.494 76.1495 116.644C72.1551 116.741 72.3632 116.92 78.1998 118.412ZM452.579 120.534C439.448 126.034 432.675 135.833 432.91 148.99C433.008 154.455 433.128 154.252 434.453 146.362C437.028 131.037 444.428 123.472 460.683 119.549C466.764 118.082 467.566 117.631 464.209 117.566C461.819 117.52 456.586 118.855 452.579 120.534ZM61.7544 123.721C65.7503 125.19 68.2163 127.228 69.8472 130.406C71.1362 132.92 74.939 137.741 78.2969 141.121C83.715 146.576 83.9954 147.156 80.7909 146.286C78.8053 145.747 72.2959 144.975 66.3257 144.571C56.0193 143.873 55.1551 143.559 49.2258 138.37C41.6767 131.764 35.6745 123.445 37.0374 121.476C38.3796 119.537 54.3048 120.983 61.7544 123.721ZM298.914 123.809C297.96 125.187 295.398 124.073 295.418 122.287C295.425 121.629 296.401 121.433 297.587 121.85C298.773 122.269 299.37 123.15 298.914 123.809ZM503.969 124.073C503.945 126.242 494.45 137.606 489.759 141.083C485.322 144.368 483.174 144.925 472.838 145.461C466.327 145.799 459.69 146.564 458.091 147.161C456.226 147.857 457.487 145.913 461.6 141.749C465.13 138.174 468.915 133.377 470.013 131.088C471.423 128.146 473.575 126.461 477.347 125.341C487.755 122.255 503.997 121.481 503.969 124.073ZM243.272 122.577C243.261 123.569 237.872 136.206 236.844 137.653C236.201 138.557 234.724 139.294 233.561 139.291C231.376 139.285 231.441 138.607 234.733 127.115C235.887 123.083 236.799 122.182 239.712 122.189C241.672 122.194 243.275 122.369 243.272 122.577ZM308.828 124.633C309.737 125.086 301.756 132.873 300.387 132.869C300.166 132.869 299.622 131.556 299.179 129.953C297.704 124.618 302.969 121.716 308.828 124.633ZM231.908 131.716C229.641 139.683 228.131 141.849 224.824 141.883C223.743 141.894 223.623 139.918 224.443 135.648C225.104 132.209 225.692 128.637 225.748 127.709C225.838 126.27 230.291 123.84 233.322 123.573C233.831 123.53 233.194 127.194 231.908 131.716ZM316.193 126.701C318.502 128.254 318.112 128.862 311.686 133.721C305.046 138.74 301.02 139.769 301.056 136.438C301.073 134.904 311.235 124.996 312.786 125C313.269 125.001 314.801 125.767 316.193 126.701ZM223.459 133.012C222.14 141.749 220.499 144.666 217.498 143.609C214.345 142.498 215.961 130.108 219.568 127.736C223.838 124.928 224.539 125.877 223.459 133.012ZM39.6898 130.95C40.185 132.416 39.2232 137.301 37.5516 141.807C32.774 154.69 30.8488 167.129 31.5763 180.427C32.136 190.673 31.8833 192.712 29.9744 193.371C28.7284 193.801 27.332 193.806 26.8718 193.382C25.1854 191.831 25.2614 164.695 26.9746 156.801C29.0875 147.057 36.1429 128.28 37.6898 128.283C38.2938 128.285 39.1945 129.485 39.6898 130.95ZM325.691 130.238C327.824 131.477 327.576 131.73 317.046 139.122C314.4 140.98 308.245 141.332 308.263 139.624C308.282 137.918 319.668 128.962 321.782 128.991C322.776 129.005 324.535 129.566 325.691 130.238ZM214.766 134.966C213.509 140.955 213.626 140.814 210.702 139.784C207.894 138.794 207.527 131.87 210.23 130.889C214.917 129.189 215.81 129.992 214.766 134.966ZM505.744 137.816C509.085 147.771 511.107 165.515 509.964 174.851C508.061 190.412 507.398 192.785 505.075 192.357C503.213 192.013 502.874 188.385 502.884 168.909C502.895 151.27 502.367 144.61 500.632 140.506C499.096 136.869 498.814 134.433 499.755 132.933C502.013 129.334 503.232 130.327 505.744 137.816ZM335.774 135.576C335.631 137.117 320.319 144.112 317.996 143.697C314.134 143.008 314.932 141.881 322.99 136.629C329.257 132.544 330.832 132.035 333.123 133.349C334.614 134.206 335.807 135.207 335.774 135.576ZM191.765 135.955C207.903 139.801 219.383 146.569 229.317 158.096C236.365 166.274 235.881 166.946 222.966 166.914C206.163 166.874 195.969 163.771 189.618 156.765C186.622 153.461 184.417 149.569 184.402 147.561C184.369 143.158 180.382 140.556 176.788 142.592C171.35 145.673 173.556 152.312 180.02 152.327C182.203 152.333 185.106 154.292 188.36 157.955C194.497 164.861 196.214 175.252 193.37 188.259C190.555 201.133 189.808 201.506 182.261 193.807C170.07 181.371 163.312 162.688 165.3 146.911C166.755 135.371 168.023 133.865 176.268 133.885C180.056 133.895 187.03 134.825 191.765 135.955ZM206.923 135.276C206.915 136 205.931 136.591 204.736 136.588C203.541 136.585 202.57 135.99 202.578 135.266C202.586 134.542 203.57 133.952 204.765 133.954C205.96 133.957 206.931 134.552 206.923 135.276ZM371.305 135.664C371.787 136.384 372.77 140.53 373.493 144.875C375.307 155.798 372.803 168.37 366.543 179.77C361.927 188.174 351.207 200.141 348.301 200.134C345.232 200.126 342.914 176.725 345.061 167.433C346.352 161.849 354.864 153.271 360.033 152.345C364.936 151.468 366.746 148.432 364.593 144.701C363.542 142.88 361.893 142.202 359.191 142.478C355.929 142.813 355.216 143.605 354.779 147.385C354.463 150.109 352.26 154.077 349.213 157.409C345.192 161.807 342.467 163.353 335.748 165.045C327.537 167.114 306.455 167.95 304.64 166.279C303.093 164.854 312.809 153.83 320.378 148.422C329.654 141.795 336.718 138.598 347.059 136.35C356.963 134.197 370.078 133.827 371.305 135.664ZM416.427 163.921C418.885 168.561 425.072 176.511 430.175 181.588L439.453 190.819L431.851 196.144L424.251 201.468L422.532 193.413C418.946 176.603 405.693 156.779 393.181 149.506L386.711 145.746L397.106 141.695L407.501 137.643L409.729 146.565C410.954 151.473 413.97 159.282 416.427 163.921ZM142.082 141.08L150.039 144.425L141.44 151.79C136.71 155.841 130.746 162.074 128.183 165.641C121.881 174.418 116.545 187.861 116.465 195.164C116.388 202.153 115.992 202.14 105.267 194.815L97.9105 189.791L107.216 181.519C117.608 172.28 126.986 157.365 130.161 145.031C131.194 141.014 132.509 137.729 133.082 137.731C133.656 137.732 137.707 139.239 142.082 141.08ZM235.958 151.178L235.375 160.431L229.698 153.854C226.576 150.236 224.07 146.808 224.13 146.234C224.234 145.239 232.06 142.234 235.093 142.025C235.974 141.964 236.313 145.551 235.958 151.178ZM313.297 144.757L317.051 146.068L310.795 152.581C307.354 156.162 304.44 158.971 304.32 158.822C304.2 158.674 303.787 154.798 303.399 150.207C302.623 140.984 302.573 141.011 313.297 144.757ZM183.159 145.196C184.292 147.952 180.389 151.334 177.324 150.254C174.912 149.403 174.075 145.642 175.929 143.979C177.751 142.342 182.301 143.109 183.159 145.196ZM287.063 168.519L295.336 177.844L292.49 182.555C289.102 188.16 278.561 198.902 272.875 202.544L268.819 205.141L262.299 200.471C258.712 197.902 254.016 193.451 251.863 190.58C249.709 187.71 247.649 185.628 247.283 185.955C246.919 186.284 247.65 187.909 248.908 189.568C251.876 193.484 251.786 194.182 248.195 195.025C245.451 195.669 245.238 195.18 245.517 188.917C245.684 185.175 245.389 180.866 244.863 179.344C244.136 177.243 245.404 175.027 250.133 170.14C257.126 162.916 267.008 149.718 268.476 145.645C269.279 143.415 270.232 144.333 274.116 151.078C276.687 155.541 282.514 163.389 287.063 168.519ZM363.709 145.403C364.86 148.204 361.346 151.742 358.436 150.715C355.969 149.845 355.1 146.1 356.974 144.418C358.693 142.873 362.924 143.493 363.709 145.403ZM79.0851 147.965C83.86 149.331 92.1442 152.697 97.4934 155.444L107.218 160.439L103.689 163.009C97.3921 167.591 86.2434 171.98 78.9495 172.747C69.3181 173.759 60.576 170.543 53.3609 163.333C44.3851 154.362 43.7782 152.644 48.5285 149.652C50.7337 148.263 53.5191 146.797 54.7185 146.391C59.3081 144.84 70.7526 145.578 79.0851 147.965ZM161.821 153.674C161.758 159.35 160.883 161.22 154.933 168.391C151.184 172.91 144.951 182.445 141.081 189.58C135.129 200.551 133.15 203.008 128.24 205.518L122.434 208.485L121.682 203.992C119.738 192.382 128.107 172.219 139.969 159.93C146.353 153.319 158.633 145.322 160.647 146.465C161.332 146.854 161.86 150.098 161.821 153.674ZM262.454 152.37C258.094 159.51 244.685 174.867 242.815 174.862C241.741 174.86 239.324 166.828 240.247 166.335C246.171 163.179 256.923 155.069 260.404 151.132C262.923 148.282 265.297 145.951 265.678 145.952C266.06 145.953 264.607 148.84 262.454 152.37ZM292.904 163.201C298.834 166.951 299.041 167.304 297.521 171.15L295.933 175.175L291.685 171.452C286.99 167.337 273.397 149.164 273.42 147.034C273.429 146.293 276.419 148.744 280.067 152.481C283.714 156.219 289.49 161.043 292.904 163.201ZM395.847 158.392C407.808 168.536 417.809 188.231 417.665 201.358C417.626 204.88 417.225 208.094 416.773 208.5C416.321 208.905 413.01 207.727 409.413 205.881C405.002 203.617 402.385 201.193 401.368 198.43C398.616 190.942 389.521 175.659 383.138 167.801C377.463 160.815 376.889 159.425 377.347 153.802L377.858 147.56L383.687 150.291C386.893 151.792 392.364 155.438 395.847 158.392ZM48.8519 153.046C48.8438 153.79 52.1184 157.113 56.1303 160.431C67.4138 169.765 78.5601 171.532 91.621 166.06C95.7258 164.342 99.5346 162.282 100.085 161.486C101.549 159.371 100.611 159.643 92.7328 163.61C87.3454 166.324 83.7078 167.172 77.6656 167.127C68.2227 167.056 62.3802 164.514 54.5262 157.062C51.4126 154.108 48.8601 152.301 48.8519 153.046ZM482.158 159.655C470.011 169.831 459.653 171.114 445.208 164.229C441.387 162.408 438.688 161.559 439.209 162.34C441.029 165.065 454.986 170.083 460.736 170.081C470.553 170.079 484.847 162.726 489.316 155.38C491.305 152.113 490.8 152.415 482.158 159.655ZM335.279 167.859C330.938 169.982 313.192 174.405 303.824 175.701L297.599 176.562L299.559 172.303L301.519 168.046L314.509 168.289C321.654 168.424 329.461 167.986 331.858 167.316C338.283 165.521 339.626 165.735 335.279 167.859ZM378.917 168.686C378.909 169.368 377.925 169.923 376.73 169.92C374.491 169.915 373.87 168.359 375.517 166.881C376.685 165.832 378.935 167.026 378.917 168.686ZM165.935 174.676C168.584 181.297 168.785 182.924 167.173 184.666C165.489 186.484 164.739 185.815 161.223 179.36C158.031 173.498 157.524 171.435 158.766 169.369C161.24 165.248 162.553 166.22 165.935 174.676ZM228.004 175.735C241.231 178.045 241.25 178.053 242.621 182.71C244.42 188.819 244.216 203.193 242.243 209.423L240.681 214.356L230.763 214.332C224.872 214.318 216.973 213.209 211.307 211.599L201.77 208.89L201.845 199.397C201.918 190.147 200.506 177.679 198.582 170.583L197.629 167.065L206.193 170.244C210.904 171.992 220.719 174.463 228.004 175.735ZM238.038 170.623C241.551 174.755 240.23 176.537 234.363 175.575C224.275 173.919 210.176 170.513 206.776 168.911C204.007 167.607 206.376 167.427 219.822 167.919C232.601 168.387 236.648 168.988 238.038 170.623ZM338.878 176.412C337.732 181.116 336.721 190.421 336.632 197.09L336.468 209.216L326.872 211.879C315.912 214.92 298.136 215.483 296.373 212.845C294.684 210.32 294.236 188.079 295.768 182.946C297.12 178.422 297.201 178.384 310.571 176.035C317.965 174.735 327.734 172.304 332.28 170.633C336.826 168.961 340.639 167.654 340.753 167.726C340.867 167.799 340.023 171.707 338.878 176.412ZM345.184 197.493C346.559 201.586 346.382 202.363 343.627 204.402C337.913 208.626 337.456 207.496 338.564 191.881C340.019 171.403 341.696 167.351 342.785 181.688C343.252 187.844 344.332 194.956 345.184 197.493ZM383.139 173.772C384.434 176.018 383.948 176.393 378.71 177.183C371.8 178.227 371.524 178.077 373.184 174.19C374.785 170.446 381.068 170.182 383.139 173.772ZM199.998 192.862C200.671 204.35 200.467 206.359 198.622 206.355C197.43 206.352 195.285 205.16 193.858 203.706C191.569 201.376 191.478 200.427 193.091 195.695C194.097 192.741 195.362 186.081 195.903 180.892C196.74 172.846 197.056 172.041 198.046 175.412C198.684 177.586 199.564 185.439 199.998 192.862ZM160.515 180.647C163.628 186.545 164.06 188.478 162.753 190.656C160.924 193.7 161.119 193.865 154.444 183.613C151.735 179.45 151.55 178.353 153.167 176.04C154.209 174.55 155.419 173.334 155.858 173.335C156.296 173.336 158.392 176.626 160.515 180.647ZM388.566 181.469L390.684 184.437L380.369 184.412C371.132 184.389 370.057 184.121 370.082 181.837C370.103 179.953 371.34 179.144 374.823 178.741C383.117 177.78 386.395 178.43 388.566 181.469ZM155.528 187.837C160.667 195.568 160.913 197.047 157.052 197.037C154.312 197.031 146.951 188.8 146.984 185.779C146.997 184.593 149.837 181.22 150.82 181.223C150.991 181.223 153.11 184.2 155.528 187.837ZM85.6801 186.364C95.0248 189.306 106.582 196.308 114.69 203.942L120.912 209.8L115.699 213.375L110.486 216.949L105.93 213.424C100.002 208.836 84.4389 201.671 74.5167 198.96C55.9256 193.881 43.7188 198.472 43.5859 210.593C43.5251 216.136 47.0562 221.034 52.9721 223.612C60.5833 226.93 78.8051 227.644 92.9613 225.179C110.387 222.145 110.098 222.121 113.346 226.819L116.264 231.038L109.149 234.282C97.3359 239.668 84.8762 241.964 71.0584 241.304C53.2582 240.452 46.8384 237.061 26.8903 217.974L10.8782 202.653L17.6728 199.998C21.4098 198.538 30.7512 194.516 38.4323 191.06C58.3972 182.075 68.7805 181.042 85.6801 186.364ZM487.346 186.967C490.919 188.044 500.527 192.135 508.697 196.059C516.867 199.981 524.653 203.194 525.999 203.197C527.713 203.202 526.693 204.705 522.599 208.216C519.382 210.973 511.693 217.947 505.512 223.715C490.572 237.655 482.411 241.607 467.145 242.299C453.101 242.935 442.533 241.083 430.586 235.893L421.664 232.019L424.161 227.363C427.014 222.042 427.218 222.002 436.961 224.862C446.133 227.554 473.805 228.062 481.442 225.679C488.766 223.394 494.255 217.327 494.32 211.446C494.359 207.892 493.186 205.717 489.303 202.142C484.362 197.593 484.01 197.492 475.225 198.123C463.873 198.938 446.553 204.951 434.829 212.148L425.793 217.696L421.594 213.832L417.397 209.968L426.933 201.956C446.149 185.813 466.652 180.726 487.346 186.967ZM177.848 193.467C180.811 196.915 182.703 199.696 182.053 199.65C181.403 199.603 176.82 198.851 171.869 197.978L162.867 196.389L166.677 190.687C168.772 187.55 170.931 185.482 171.473 186.092C172.017 186.701 174.885 190.019 177.848 193.467ZM293.226 190.126C293.186 193.716 292.588 194.732 290.52 194.727C286.232 194.717 285.906 193.344 289.24 189.309C290.963 187.222 292.575 185.516 292.824 185.516C293.073 185.517 293.253 187.591 293.226 190.126ZM372.274 191.951L375.515 196.908L365.82 198.384C360.487 199.197 356.002 199.765 355.853 199.649C355.705 199.532 358.281 196.334 361.58 192.544C364.877 188.752 367.903 185.952 368.303 186.322C368.705 186.692 370.492 189.224 372.274 191.951ZM393.004 189.235L394.709 192.716L385.057 191.987C376.261 191.323 372.984 189.892 372.947 186.698C372.941 186.155 377.068 185.72 382.117 185.733C390.637 185.753 391.423 186.007 393.004 189.235ZM150.006 194.08L152.924 198.344L149.066 198.335C146.944 198.33 143.865 198.973 142.224 199.762C139.862 200.9 139.39 200.829 139.968 199.428C140.37 198.453 141.509 197.831 142.502 198.044C143.652 198.29 143.975 197.629 143.394 196.214C142.258 193.448 143.82 188.815 145.693 189.389C146.461 189.624 148.402 191.735 150.006 194.08ZM396.752 196.4C397.26 197.905 397.351 199.427 396.954 199.784C395.524 201.068 378.764 197.223 378.034 195.442C377.445 194.01 379.263 193.626 386.557 193.643C394.668 193.663 395.944 194.008 396.752 196.4ZM260.224 200.568L267.102 206.394L263.036 208.279C260.798 209.316 255.448 211.1 251.147 212.245L243.326 214.326L244.311 208.237C244.853 204.889 245.309 201.029 245.324 199.658C245.346 197.621 249.405 194.902 252.619 194.771C253.018 194.755 256.439 197.364 260.224 200.568ZM289.94 197.03C291.917 198.616 293.071 201.695 293.619 206.844L294.416 214.347L286.83 212.28C282.659 211.144 277.384 209.333 275.107 208.255L270.969 206.297L278.088 200.564C282.004 197.412 285.625 194.806 286.134 194.776C286.644 194.744 288.356 195.758 289.94 197.03ZM72.9587 200.106C83.0862 202.584 99.6141 210.098 106.107 215.176L111.133 219.108L106.042 221.04C92.8882 226.034 63.0562 226.759 53.6121 222.315C48.1321 219.737 45.2713 215.397 45.3331 209.757C45.3749 205.951 46.3576 204.166 49.8804 201.503C55.1207 197.541 61.0138 197.184 72.9587 200.106ZM489.581 203.638C495.808 210.312 492.834 220.024 483.497 223.51C472.295 227.694 444.983 226.844 432.054 221.91L427.137 220.033L430.466 216.854C434.576 212.928 451.834 204.664 462.561 201.484C474.12 198.058 485.197 198.941 489.581 203.638ZM180.797 202.489C186.883 203.901 187.151 204.149 185.224 206.612C182.136 210.554 168.473 219.452 161.067 222.341C152.628 225.635 137.071 224.631 135.747 220.708C133.766 214.85 124.413 216.915 125.125 223.052C125.587 227.024 130.674 228.603 134.3 225.898C137.111 223.801 148.784 225.442 154.679 228.763C162.448 233.139 178.602 255.081 175.375 256.875C172.519 258.463 154.873 254.567 145.099 250.191C133.254 244.888 121.755 235.034 116.171 225.404L112.654 219.338L117.729 215.454C135.258 202.038 158.367 197.288 180.797 202.489ZM388.878 202.128C400.461 204.393 411.344 209.275 419.008 215.645L424.697 220.374L420.777 226.792C415.308 235.749 401.664 247.006 390.736 251.575C381.917 255.264 362.541 259.038 360.775 257.411C358.99 255.768 368.939 241.366 376.746 234.294C384.233 227.512 385.541 226.858 393.338 225.992C398.864 225.379 402.344 225.551 403.36 226.487C407.263 230.08 414.057 226.331 412.42 221.486C410.937 217.094 405.814 216.536 402.332 220.388C399.991 222.979 397.428 223.931 390.898 224.641C383.227 225.473 381.673 225.178 373.38 221.311C368.374 218.977 361.249 214.236 357.546 210.775L350.813 204.481L357.08 203.015C370.518 199.872 376.486 199.706 388.878 202.128ZM193.762 206.555C195.782 207.4 197.43 208.462 197.425 208.916C197.401 211.055 166.262 224.709 161.434 224.697C160.914 224.696 164.383 222.601 169.144 220.039C173.904 217.478 180.423 213.05 183.629 210.2C186.835 207.349 189.601 205.016 189.774 205.016C189.947 205.017 191.742 205.709 193.762 206.555ZM354.503 210.602C357.689 213.461 364.144 217.92 368.848 220.511C378.716 225.944 378.65 226.102 367.923 222.709C359.17 219.94 353.031 217.205 344.512 212.275L338.865 209.006L342.395 207.246C347.505 204.699 348.121 204.871 354.503 210.602ZM56.9984 207.923C54.6678 210.44 56.2718 214.877 59.8928 215.934C65.3373 217.523 69.3897 211.336 65.3446 207.612C63.0102 205.463 59.1428 205.607 56.9984 207.923ZM472.15 207.895C470.411 209.455 471.055 214.549 473.197 216.183C475.707 218.1 480.627 216.935 481.84 214.136C483.83 209.548 475.957 204.477 472.15 207.895ZM65.3367 210.974C65.8727 214.662 61.8058 216.361 58.8849 213.671C56.0156 211.03 57.9331 207.083 61.8353 207.599C63.7458 207.853 65.0687 209.127 65.3367 210.974ZM276.933 210.431C279.966 211.851 285.445 213.709 289.111 214.559C295.165 215.963 296.088 216.725 299.189 222.876C301.067 226.6 304.212 231.603 306.18 233.993C309.524 238.058 309.635 238.695 307.879 243.872C306.848 246.915 305.504 252.813 304.895 256.978C304.048 262.764 303.06 264.9 300.707 266.033C299.012 266.85 294.38 270.243 290.414 273.575L283.203 279.633L268.178 279.677C253.44 279.72 253.079 279.649 249.203 275.899C247.031 273.797 242.181 269.996 238.424 267.451C232.146 263.199 231.6 262.377 231.656 257.251C231.69 254.186 230.756 248.629 229.58 244.903L227.443 238.129L232.47 231.834C235.235 228.372 238.498 223.398 239.72 220.778C241.719 216.496 242.947 215.738 251.902 213.251C257.38 211.729 262.846 209.898 264.048 209.18C267.324 207.225 270.817 207.564 276.933 210.431ZM479.102 212.3C479.061 216.054 474.473 217.633 473.127 214.358C471.843 211.233 473.742 208.086 476.604 208.594C478.204 208.879 479.125 210.245 479.102 212.3ZM208.933 216.383C216.523 222.918 224.673 233.646 224.636 237.057C224.591 241.098 206.309 252.271 194.958 255.194C191.331 256.128 190.308 255.774 187.749 252.697C182.159 245.978 167.513 232.392 163.529 230.231C161.344 229.045 159.565 227.758 159.577 227.371C159.587 226.984 163.465 225.584 168.193 224.261C172.92 222.937 181.591 219.32 187.459 216.223C193.329 213.128 198.974 210.53 200.005 210.453C201.036 210.376 205.053 213.044 208.933 216.383ZM352.637 217.824C360.952 221.776 370.122 225.419 373.017 225.921C378.805 226.924 379.813 228.551 375.42 229.804C373.86 230.248 366.539 236.343 359.15 243.348C349.067 252.906 344.957 255.967 342.679 255.614C337.33 254.784 323.109 247.545 317.23 242.658L311.532 237.922L315.542 231.356C319.296 225.209 333.985 210.632 336.419 210.638C337.025 210.64 344.323 213.874 352.637 217.824ZM264.928 215.506C263.595 216.828 262.488 218.454 262.469 219.121C262.361 222.785 260.118 223.488 254.451 221.632C251.3 220.602 247.911 219.73 246.914 219.696C244.728 219.621 244.362 227.913 246.395 231.436C247.553 233.446 247.121 233.998 243.824 234.724C241.643 235.205 238.373 236.464 236.555 237.522C233.863 239.089 233.527 239.922 234.739 242.023C235.556 243.44 238.158 245.517 240.518 246.638L244.809 248.678L241.983 252.252C240.429 254.218 238.726 257.139 238.198 258.743C237.418 261.111 237.94 261.822 240.984 262.525C243.044 263.001 246.666 263.045 249.032 262.622C252.953 261.919 253.33 262.168 253.313 265.439C253.257 275.534 257.355 277.66 264.244 271.11L268.303 267.252L273.107 271.132C280.693 277.258 283.594 275.951 283.699 266.36L283.748 261.859L291.871 261.879L299.995 261.899L299.045 258.276C298.524 256.284 296.812 253.384 295.243 251.835L292.388 249.017L296.864 246.152C299.324 244.575 302.013 242.165 302.836 240.793C304.084 238.715 303.622 237.963 300.057 236.269C297.707 235.152 294.555 234.236 293.056 234.233C290.639 234.227 290.415 233.41 291.072 226.986C291.779 220.055 291.664 219.746 288.332 219.738C286.421 219.734 283.277 220.724 281.347 221.938C278.041 224.021 277.753 224.013 276.32 221.784C273.539 217.46 269.603 213.11 268.469 213.107C267.855 213.105 266.26 214.185 264.928 215.506ZM326.003 216.7C322.205 220.108 318.969 220.031 319.007 216.53C319.018 215.535 320.823 214.478 323.016 214.182C325.209 213.885 327.643 213.556 328.422 213.45C329.203 213.342 328.113 214.805 326.003 216.7ZM217.701 215.617C218.408 215.619 218.601 216.508 218.132 217.593C216.959 220.295 215.726 220.067 213.477 216.733C211.785 214.228 211.844 214.002 213.993 214.759C215.326 215.23 216.996 215.615 217.701 215.617ZM273.185 219.601C275.688 223.569 275.731 224.38 273.739 230.024C270.96 237.9 267.524 238.684 264.581 232.114C261.835 225.989 261.871 223.188 264.759 218.216C267.503 213.488 269.542 213.822 273.185 219.601ZM318.357 219.153C319.98 221.454 319.622 222.668 315.538 228.691C312.963 232.486 310.413 235.591 309.87 235.59C308.205 235.586 298.684 220.658 298.712 218.096C298.736 215.982 299.823 215.738 307.617 216.101C314.605 216.427 316.892 217.077 318.357 219.153ZM239.332 217.688C239.304 220.272 228.069 236.514 227.154 235.294C226.921 234.984 224.651 231.548 222.11 227.658C216.161 218.55 217.37 216.933 230.102 216.964C235.183 216.976 239.337 217.302 239.332 217.688ZM520.198 226.164C522.6 230.844 525.832 239.294 527.377 244.943C530.594 256.701 532.493 282.211 530.149 282.206C527.08 282.198 525.818 278.586 525.054 267.639C524.115 254.139 520.203 238.937 515.077 228.862C511.52 221.872 511.268 217.645 514.411 217.652C515.191 217.654 517.796 221.484 520.198 226.164ZM134.698 223.075C134.051 226.014 127.961 226.753 126.843 224.03C126.372 222.884 126.789 221.078 127.769 220.018C130.082 217.521 135.406 219.869 134.698 223.075ZM410.061 220.524C412.445 223.174 410.346 226.83 406.721 226.349C403.169 225.877 401.771 221.507 404.647 219.868C407.347 218.328 408.175 218.429 410.061 220.524ZM23.6744 234.524C17.0717 247.011 13.6271 257.338 11.9208 269.759C10.9322 276.963 9.5177 279.553 6.5465 279.601C4.8255 279.629 5.38105 270.178 7.71969 259.661C10.1498 248.731 15.6645 235.067 21.5125 225.49C25.0345 219.722 25.7091 219.226 27.6263 220.991C29.5434 222.757 29.1085 224.248 23.6744 234.524ZM257.103 223.888C258.541 224.565 260.973 227.846 262.505 231.176C266.118 239.032 264.464 240.736 256.445 237.414C250.173 234.816 246.441 229.888 246.502 224.286C246.535 221.264 246.962 220.997 250.513 221.778C252.697 222.26 255.663 223.209 257.103 223.888ZM289.934 226.074C289.871 231.88 288.226 234.051 280.934 237.957C276.302 240.435 275.435 240.541 273.883 238.815C271.489 236.157 277.629 224.973 282.729 222.707C288.72 220.043 289.994 220.639 289.934 226.074ZM513.745 229.627C515.761 233.322 518.57 240.636 519.987 245.883C523.169 257.658 524.999 276.927 522.933 276.922C521.5 276.918 510.796 273.088 509.79 272.218C509.506 271.974 510.669 270.022 512.372 267.881C516.68 262.467 516.314 260.654 510.118 256.722C489.88 243.881 472.04 247.141 455.56 266.693C450.515 272.678 450.013 273.941 450.789 278.686C451.958 285.831 457.893 297.641 462.628 302.242C471.379 310.745 484.826 313.536 499.398 309.873C506.841 308.001 507.907 305.867 504.987 298.688C503.613 295.314 503.626 295.308 511.56 295.327L519.51 295.346L517.224 300.278C513.575 308.153 502.671 321.649 493.13 330.098C488.283 334.389 484.095 337.638 483.82 337.317C483.547 336.995 481.524 333.766 479.328 330.14C471.685 317.529 462.275 310.395 447.437 305.967L438.996 303.447L437.93 296.992C435.599 282.867 440.139 262.197 448.345 249.58L451.875 244.151L465.32 243.646C481.639 243.034 489.102 240.191 501.146 229.994C505.686 226.148 509.554 222.982 509.739 222.955C509.925 222.929 511.727 225.931 513.745 229.627ZM54.7653 240.245C60.0798 242.073 66.0149 242.899 73.9578 242.918C87.3001 242.951 87.652 243.227 93.7013 258.478C97.5857 268.27 99.3915 290.087 96.9804 298.104C95.8018 302.024 94.6091 302.878 86.7582 305.434C71.1772 310.507 60.3241 319.768 53.389 333.91C51.8452 337.058 50.3672 339.893 50.1059 340.21C49.1533 341.36 36.3632 328.874 30.7711 321.334C24.5637 312.966 16.8441 298.142 16.8822 294.662C16.8997 293.068 17.7538 292.714 20.156 293.308C21.9443 293.748 25.5467 294.122 28.1638 294.138C32.4175 294.165 32.7607 294.437 31.3945 296.711C30.555 298.109 29.8479 301.048 29.8238 303.24C29.7847 306.809 30.4214 307.387 35.9187 308.783C58.8772 314.61 76.2294 305.467 83.7972 283.558C87.5384 272.726 87.174 271.619 76.2295 260.559C61.5447 245.717 44.4125 244.177 25.8906 256.037C20.8291 259.278 20.481 262.226 24.5922 267.049C28.0114 271.06 28.0798 270.9 22.192 272.745C19.7939 273.498 16.6118 274.555 15.1197 275.098C12.6054 276.011 12.4887 275.566 13.4981 268.974C15.3311 257.013 18.8318 246.587 24.8673 235.101L30.635 224.125L38.8532 230.863C43.5085 234.68 50.4047 238.746 54.7653 240.245ZM168.617 235.781C175.396 240.738 188.336 255.136 187.325 256.598C186.916 257.19 184.774 257.67 182.568 257.664C179.141 257.656 178.056 256.648 175.125 250.751C173.238 246.953 168.882 240.643 165.443 236.728C158.91 229.288 159.496 229.114 168.617 235.781ZM372.648 236.29C369.37 239.48 364.647 245.689 362.152 250.089C357.659 258.012 355.127 259.514 350.647 256.905C349.16 256.039 350.571 253.801 356.642 247.394C363.634 240.012 375.568 230.482 377.811 230.488C378.249 230.489 375.926 233.099 372.648 236.29ZM121.507 237.438C125.249 241.798 125.932 244.048 127.256 256.378C128.083 264.075 130.029 274.448 131.582 279.43C133.135 284.412 134.512 289.082 134.643 289.806C135.035 291.986 130.853 302.305 129.578 302.302C127.141 302.296 116.979 288.838 113.893 281.529C108.473 268.691 110.11 232.473 116.109 232.487C116.742 232.489 119.171 234.717 121.507 237.438ZM423.749 240.145C427.313 248.405 427.874 263.744 425.001 274.38C422.178 284.833 415.511 297.113 410.284 301.488L406.574 304.595L404.209 299.499C401.062 292.714 401.197 289.522 405.099 278.611C407.037 273.194 408.807 264.042 409.4 256.384C410.326 244.391 410.747 243.018 414.728 238.951C417.104 236.524 419.564 234.539 420.191 234.54C420.818 234.542 422.42 237.063 423.749 240.145ZM255.101 238.42C260.502 241.252 262.161 243.756 259.588 245.186C258.939 245.545 255.112 246.23 251.082 246.705C244.304 247.505 243.388 247.268 238.888 243.551L234.023 239.533L239.115 237.533C246.039 234.814 248.487 234.95 255.101 238.42ZM300.478 238.185C301.685 239.312 300.884 240.675 297.324 243.548C292.479 247.455 289.314 248.046 281.201 246.547C275.049 245.412 275.457 242.142 282.209 238.471C287.994 235.325 297.262 235.18 300.478 238.185ZM441.568 241.113C445.779 242.355 449.194 243.773 449.156 244.265C449.119 244.758 447.476 247.993 445.507 251.455C438.827 263.188 436.549 272.356 436.36 288.233L436.186 303.044L426.971 303.022C421.904 303.01 418.009 302.557 418.317 302.013C433.378 275.425 436.278 259.491 429.61 239.96C428.674 237.219 428.89 236.934 431.221 237.826C432.7 238.393 437.357 239.872 441.568 241.113ZM104.944 255.172C104.729 274.781 107.503 285.452 115.448 295.582C117.759 298.527 119.647 301.24 119.643 301.608C119.639 301.976 114.846 302.266 108.993 302.252L98.3502 302.226L99.1999 288.938C100.189 273.47 98.5443 264.595 92.3228 251.833C89.9317 246.931 88.241 242.745 88.5648 242.533C89.1148 242.173 102.812 238.125 104.41 237.851C104.809 237.783 105.049 245.577 104.944 255.172ZM274.605 242.169C276.184 244.533 273.881 249.769 270.887 250.622C263.501 252.728 259.006 244.242 265.381 240.227C268.56 238.225 272.528 239.06 274.605 242.169ZM228.705 246.51C229.562 249.728 230.236 254.699 230.205 257.553L230.148 262.742L221.85 259.977C208.896 255.66 208.186 252.7 218.387 245.56C222.201 242.893 225.731 240.697 226.234 240.683C226.737 240.668 227.85 243.29 228.705 246.51ZM318.79 245.813C324.978 250.058 325.873 251.235 325.063 254.054C324.543 255.863 324.008 257.399 323.872 257.466C323.316 257.742 310.383 261.564 308.369 262.049C306.622 262.468 306.296 261.399 306.721 256.648C307.3 250.171 309.746 240.856 310.868 240.859C311.256 240.86 314.821 243.09 318.79 245.813ZM407.004 248.951C406.985 250.732 406.288 251.299 404.774 250.766C403.077 250.167 402.959 249.574 404.256 248.172C406.515 245.733 407.038 245.88 407.004 248.951ZM147.645 257.598C147.609 260.866 147.195 260.853 137.899 257.314C131.26 254.786 130.304 253.949 130.34 250.694L130.381 246.967L139.027 250.976C145.227 253.851 147.666 255.725 147.645 257.598ZM261.663 249.298C261.903 250.023 259.925 252.921 257.266 255.739C253.049 260.208 251.612 260.877 246.007 260.978C240.36 261.08 239.645 260.778 240.112 258.486C240.955 254.344 245.998 248.832 249.528 248.19C254.646 247.26 261.187 247.856 261.663 249.298ZM291.466 250.221C293.656 251.277 298.277 257.834 298.254 259.854C298.25 260.253 295.115 260.57 291.289 260.561C285.263 260.546 283.691 259.937 279.56 256.011C273.048 249.824 274.302 246.765 282.816 248.071C286.194 248.588 290.087 249.555 291.466 250.221ZM57.8033 250.749C60.5083 251.462 65.0654 253.539 67.9306 255.363C73.6208 258.987 84.6693 271.525 83.2752 272.777C79.9708 275.744 51.467 276.727 40.7586 274.244C34.2992 272.746 23.0053 264.622 23.0396 261.499C23.0628 259.385 31.9 253.658 38.4894 251.487C45.3333 249.232 51.2046 249.008 57.8033 250.749ZM404.173 251.664C407.174 253.139 407.631 255.173 405.606 258.029C404.576 259.483 403.457 259.234 399.774 256.732C395.586 253.884 395.422 253.499 397.759 251.963C400.822 249.95 400.697 249.956 404.173 251.664ZM503.971 255.275C514.193 260.385 515.154 261.752 511.568 266.092C506.336 272.427 497.257 275.939 484.456 276.581C472.617 277.175 453.07 274.776 453.092 272.733C453.127 269.549 466.425 257.424 473.62 254.012C480.367 250.815 482.739 250.345 489.148 250.942C493.409 251.339 499.881 253.229 503.971 255.275ZM208.294 256.173C206.808 256.4 204.129 256.362 202.339 256.086C199.44 255.641 199.64 255.367 204.177 253.579C208.79 251.758 209.349 251.766 210.132 253.664C210.706 255.059 210.091 255.897 208.294 256.173ZM267.845 259.227C267.791 264.129 266.914 266.486 263.981 269.61C257.808 276.186 254.642 274.505 254.749 264.707C254.788 261.152 255.963 258.864 259.368 255.711C265.409 250.118 267.933 251.166 267.845 259.227ZM281.9 267.019C281.655 270.22 280.732 273.053 279.848 273.314C278.963 273.575 276.211 272.044 273.73 269.911C269.831 266.56 269.228 265.137 269.291 259.431C269.383 250.995 271.665 250.162 277.672 256.369C281.66 260.49 282.28 262.051 281.9 267.019ZM332.423 256.468C326.165 256.931 325.402 256.561 326.656 253.668C327.475 251.777 328.042 251.792 332.722 253.824L337.882 256.066L332.423 256.468ZM44.1208 254.264C39.5615 255.163 32.8053 257.616 29.1702 259.692C23.5252 262.917 26.4149 262.636 33.8825 259.235C44.0184 254.617 56.7791 254.732 64.5002 259.512C67.5789 261.416 71.8418 264.833 73.975 267.105C76.1096 269.376 77.8884 270.55 77.9295 269.712C77.972 268.874 74.7975 265.535 70.876 262.292C62.2781 255.18 53.2365 252.467 44.1208 254.264ZM399.444 258.198C404.833 261.785 406.855 265.639 404.47 267.778C403.282 268.845 389.51 259.32 389.53 257.445C389.548 255.792 390.991 254.219 392.487 254.223C393.03 254.224 396.161 256.013 399.444 258.198ZM477.682 256.195C474.766 257.167 470.632 259.199 468.495 260.711C463.761 264.058 458.328 270.088 459.269 270.953C459.646 271.3 461.079 270.05 462.454 268.176C463.828 266.301 467.991 263.034 471.704 260.915C480.692 255.787 492.263 255.58 502.626 260.36C506.505 262.15 509.685 263.165 509.691 262.615C509.712 260.733 496.913 255.906 489.946 255.166C485.717 254.717 480.904 255.12 477.682 256.195ZM139.775 259.407C145.914 261.695 148.436 263.366 148.748 265.353C149.268 268.675 148.556 268.723 139.745 265.964C135.008 264.48 132.487 262.822 131.58 260.592C129.401 255.237 128.816 255.322 139.775 259.407ZM159.588 258.205C161.775 258.607 165.351 259.29 167.537 259.722L171.512 260.508L165.689 263.165C162.487 264.627 158.7 266.743 157.274 267.866C153.937 270.5 152.435 268.979 151.218 261.735C150.348 256.554 150.512 256.075 152.934 256.74C154.407 257.143 157.401 257.802 159.588 258.205ZM386.048 258.923C385.552 260.068 385.122 262.288 385.093 263.859C384.977 270.031 383.076 270.316 374.319 265.473C366.927 261.383 366.377 260.795 369.421 260.229C371.307 259.878 375.463 259.032 378.657 258.35C386.867 256.595 387.051 256.61 386.048 258.923ZM221.95 261.107C225.782 262.347 229.294 264.278 229.755 265.399C231.122 268.727 227.393 281.524 222.441 290.495L217.824 298.859L212.571 298.02C196.772 295.493 183.806 294.303 178.19 294.865C174.704 295.213 171.854 295.346 171.856 295.16C171.858 294.976 174.173 291.393 177 287.202C179.828 283.01 184.274 274.577 186.883 268.462L191.626 257.345L203.305 258.099C209.727 258.515 218.117 259.868 221.95 261.107ZM350.232 269.982C352.739 276.54 356.972 284.905 359.64 288.571C362.31 292.236 364.491 295.445 364.488 295.699C364.485 295.954 361.391 295.828 357.611 295.42C351.545 294.764 340.817 295.674 323.701 298.298L318.422 299.107L313.225 289.339C309.981 283.239 307.745 276.803 307.273 272.197C306.602 265.654 306.857 264.658 309.539 263.366C315.207 260.637 327.946 258.19 336.82 258.125L345.675 258.059L350.232 269.982ZM187.465 262.614C185.451 269.653 177.718 284.696 174.114 288.585L170.461 292.526L173.35 286.546C174.937 283.257 177.075 276.153 178.097 270.758C180.003 260.717 181.108 259.033 185.807 259.009C188.021 258.998 188.316 259.636 187.465 262.614ZM355.675 260.408C356.584 260.942 357.774 264.935 358.321 269.281C358.865 273.628 360.461 280.316 361.864 284.146C367.28 298.924 357.633 284.467 350.866 267.664L347.53 259.381L350.777 259.408C352.561 259.424 354.767 259.873 355.675 260.408ZM400.608 268.359C403.707 270.632 403.743 270.94 401.683 277.751C400.511 281.626 399.265 285.053 398.914 285.368C397.818 286.351 386.462 273.051 386.487 270.812C386.52 267.776 388.388 268.19 392.376 272.118C394.286 273.999 397.147 276.111 398.733 276.81C400.318 277.511 398.549 275.43 394.8 272.187C388.412 266.663 386.755 263.691 388.958 261.714C389.827 260.934 392.756 262.605 400.608 268.359ZM177.181 267.855C174.332 285.422 168.897 295.319 159.127 300.726C154.02 303.552 150.862 304.448 147.577 304.002C141.284 303.145 138.65 307.278 142.636 311.757C144.871 314.268 145.883 314.577 148.028 313.404C149.481 312.609 150.889 310.709 151.157 309.179C151.467 307.401 154.554 304.902 159.722 302.242C167.678 298.147 167.961 298.104 178.127 299.462C190.429 301.105 205.431 306.051 204.625 308.2C203.587 310.967 192.773 316.8 183.173 319.77C170.821 323.592 154.102 323.758 141.377 320.184C136.33 318.767 131.86 316.78 131.445 315.768C130.193 312.721 134.216 299.531 138.953 291.155C144.415 281.494 157.253 270.002 167.892 265.248C172.266 263.294 176.373 261.676 177.019 261.65C177.665 261.625 177.739 264.416 177.181 267.855ZM368.125 265.541C387.667 274.628 401.166 291.684 404.149 311.055L405.09 317.166L397.151 319.838C376.452 326.802 351.153 323.471 334.019 311.529L329.109 308.105L337.036 304.841C341.396 303.045 349.984 300.911 356.12 300.097C367.121 298.639 367.39 298.672 375.378 302.499C379.833 304.635 383.303 306.638 383.088 306.952C382.873 307.267 383.488 308.893 384.455 310.569C386.914 314.829 393.768 314.17 394.527 309.6C395.202 305.54 391.194 302.498 387.508 304.272C384.231 305.851 372.937 300.293 368.974 295.154C364.001 288.704 356.532 262.036 359.699 262.043C360.199 262.045 363.991 263.619 368.125 265.541ZM142.462 267.987C146.431 269.27 149.672 270.896 149.664 271.6C149.636 274.132 141.718 281.265 138.944 281.258C136.171 281.252 134.376 278.883 134.416 275.283C134.431 273.86 135.332 273.771 138.735 274.862C141.099 275.62 143.848 275.996 144.844 275.698C145.839 275.399 143.583 274.443 139.828 273.573C136.075 272.702 133.009 271.453 133.016 270.799C133.023 270.145 132.644 268.672 132.173 267.525C131.092 264.893 133.183 264.987 142.462 267.987ZM240.379 270.431C244.247 273.039 248.36 276.429 249.524 277.962C251.563 280.651 251.317 280.859 242.651 283.788C234.04 286.7 233.558 286.729 231.129 284.479C228.852 282.373 228.778 281.294 230.409 273.909C231.409 269.386 232.479 265.685 232.788 265.686C233.096 265.687 236.513 267.821 240.379 270.431ZM305.808 272.799C306.246 275.929 307.001 279.459 307.486 280.641C308.064 282.048 307.166 283.497 304.882 284.844C301.659 286.744 300.802 286.677 293.554 283.964C289.239 282.349 285.445 280.867 285.119 280.67C283.282 279.553 302.204 265.512 304.099 266.587C304.601 266.872 305.37 269.668 305.808 272.799ZM38.1004 274.944C41.2747 276.054 46.6423 276.995 50.0268 277.035C57.4416 277.123 57.9276 278.637 51.2368 280.813C48.5302 281.692 43.2467 284.84 39.4961 287.805C32.7722 293.122 32.5629 293.185 24.4355 292.301C14.857 291.26 6.98933 289.409 3.92544 287.475C2.1245 286.338 2.71167 285.363 7.46775 281.576C13.5199 276.758 26.5467 271.484 30.1622 272.387C31.3539 272.683 34.926 273.835 38.1004 274.944ZM519.892 278.502C524.38 280.671 529.5 283.866 531.271 285.601L534.489 288.758L528.804 290.918C525.675 292.108 518.727 293.364 513.359 293.711C503.826 294.327 503.475 294.236 498.051 289.727C494.998 287.19 489.807 284.022 486.515 282.687C483.223 281.353 480.534 279.866 480.539 279.381C480.544 278.898 484.369 278.196 489.037 277.823C493.705 277.45 499.422 276.225 501.74 275.102C506.627 272.733 508.794 273.14 519.892 278.502ZM80.6171 286.933C73.0277 304.877 56.7505 312.408 36.6595 307.274C30.482 305.696 29.8266 303.253 33.6537 296.08C38.1906 287.58 52.1097 280.59 71.3897 277.13C85.2449 274.644 85.6386 275.062 80.6171 286.933ZM475.047 280.289C491.222 284.953 502.436 293.534 504.301 302.675C505.101 306.588 504.871 306.816 498.501 308.417C488.925 310.824 475.823 309.623 469.717 305.78C463.182 301.665 456.535 292.329 453.802 283.427C452.594 279.491 451.608 276.03 451.611 275.736C451.622 274.702 464.026 277.111 475.047 280.289ZM75.9335 285.042C70.6847 298.096 58.4424 304.598 42.0782 303.022C37.3397 302.566 34.4655 302.751 34.9543 303.483C36.4277 305.689 54.7402 304.867 60.9877 302.313C68.0528 299.426 75.3752 292.233 77.776 285.82C80.5648 278.369 78.8996 277.666 75.9335 285.042ZM456.618 282.192C458.937 289.381 465.175 297.976 470.57 301.411C475.297 304.421 478.234 305.176 486.841 305.592C492.618 305.872 498.494 305.522 499.901 304.814C501.677 303.918 499.335 303.722 492.199 304.169C483.552 304.71 480.888 304.341 475.211 301.817C467.95 298.588 460.916 290.9 459.466 284.607C458.976 282.484 457.909 280.366 457.092 279.904C456.134 279.36 455.966 280.168 456.618 282.192ZM280.145 282.037C280.403 282.275 278.575 285.824 276.084 289.923C269.936 300.041 266.465 300.087 260.401 290.13C257.98 286.152 256.001 282.635 256.004 282.312C256.023 280.608 278.317 280.354 280.145 282.037ZM140.116 283.817C140.108 284.499 139.446 285.42 138.645 285.866C137.843 286.312 137.198 285.752 137.21 284.623C137.222 283.495 137.884 282.572 138.681 282.574C139.477 282.576 140.123 283.135 140.116 283.817ZM257.055 287.236C261.188 293.723 265.513 305.218 266.036 311.105C266.488 316.213 266.378 316.341 257.307 321.077C252.255 323.715 243.973 328.844 238.906 332.475L229.691 339.077L227.401 327.909C226.142 321.766 223.538 313.13 221.615 308.715L218.12 300.69L222.887 296.275C228.256 291.305 245.976 282.834 250.981 282.846C253.164 282.852 255.199 284.322 257.055 287.236ZM298.718 287.546C302.707 289.331 308.585 292.849 311.781 295.365L317.593 299.939L312.674 312.857C309.969 319.962 307.299 329.104 306.742 333.175L305.726 340.576L299.422 335.017C295.953 331.958 287.604 326.533 280.868 322.96L268.619 316.463L269.536 310.76C270.727 303.352 273.865 295.599 278.585 288.414C282.079 283.093 282.723 282.711 286.919 283.476C289.422 283.931 294.732 285.762 298.718 287.546ZM228.73 290.287C223.158 294.388 222.235 294.022 225.027 288.818C227.107 284.937 227.797 284.531 230.077 285.838C232.555 287.26 232.474 287.532 228.73 290.287ZM309.939 286.61C310.327 287.877 311.15 290.071 311.769 291.484C312.802 293.841 312.514 293.804 308.257 291.018C304.548 288.591 303.961 287.614 305.325 286.14C307.611 283.673 309.089 283.823 309.939 286.61ZM14.0696 294.122C14.6689 295.21 17.6759 301.142 20.7528 307.305C26.8399 319.501 37.2965 333.186 44.6445 338.577C47.7739 340.872 49.0565 342.787 48.5663 344.429C48.1649 345.771 47.2447 346.868 46.522 346.866C43.7541 346.86 27.0944 329.573 21.5389 320.942C15.8921 312.171 8.17847 295.88 8.21226 292.799C8.23536 290.693 12.7389 291.71 14.0696 294.122ZM527.364 295.694C523.826 305.946 513.427 320.287 501.228 331.737C494.051 338.474 487.674 343.985 487.057 343.983C486.44 343.982 485.536 343.012 485.05 341.828C484.433 340.327 486.841 337.332 493.001 331.937C504.229 322.104 513.437 310.916 518.046 301.51C521.257 294.955 522.874 293.431 527.199 292.884C527.852 292.802 527.925 294.066 527.364 295.694ZM207.057 298.788L215.487 300.261L211.878 303.502L208.268 306.742L198.366 303.09C192.92 301.081 185.711 299.142 182.346 298.782C178.826 298.407 176.609 297.576 177.126 296.829C178.119 295.392 193.325 296.388 207.057 298.788ZM358.675 297.42C358.668 298.051 355.563 298.946 351.774 299.411C347.984 299.875 340.983 301.697 336.214 303.459L327.542 306.664L324.265 303.832C322.464 302.274 321.28 300.737 321.637 300.418C322.641 299.516 345.634 296.518 352.531 296.389C355.918 296.326 358.682 296.79 358.675 297.42ZM270.307 302.313C269.593 304.302 268.737 306.801 268.406 307.864C268.075 308.925 267.132 307.294 266.313 304.238C264.878 298.886 264.95 298.68 268.214 298.688C271.255 298.695 271.472 299.071 270.307 302.313ZM222.153 314.726C225.497 324.527 226.227 328.879 225.858 336.789C225.275 349.246 222.363 357.675 218.027 359.453C213.875 361.154 212.689 363.849 214.621 367.197C216.818 371.006 223.733 370.097 224.432 365.908C224.717 364.195 224.312 362.206 223.533 361.49C221.391 359.517 225.96 348.661 230.92 343.934C233.244 341.72 234.782 339.572 234.336 339.162C232.549 337.518 262.052 318.422 266.361 318.433C267.585 318.436 267.274 324.095 265.948 325.959C265.322 326.839 260.586 328.745 255.423 330.193C250.261 331.642 243.413 334.291 240.206 336.083C232.382 340.454 234.206 340.26 244.687 335.607C249.419 333.507 255.822 331.18 258.918 330.435L264.545 329.082L263.761 334.031C261.44 348.672 245.514 366.786 228.411 374.24C212.728 381.073 213.096 381.161 206.532 369.044C200.886 358.624 200.854 358.476 201.02 343.356C201.165 330.094 201.661 327.153 204.893 320.356C206.932 316.07 209.274 312.367 210.099 312.125C211.879 311.607 219.812 323.353 222.734 330.835C223.867 333.734 224.843 335.218 224.904 334.132C225.057 331.348 218.443 318.496 214.236 313.405C210.867 309.328 210.817 308.982 213.133 305.822C214.468 304 216.107 302.511 216.774 302.513C217.442 302.515 219.863 308.011 222.153 314.726ZM322.892 305.963C325.06 309.021 324.911 309.495 319.503 316.817C316.394 321.028 312.46 327.728 310.763 331.707C307.144 340.19 306.786 338.372 309.727 326.437C312.225 316.295 317.783 302.758 319.448 302.762C320.095 302.763 321.645 304.203 322.892 305.963ZM128.738 304.604C129.065 305.148 129.015 307.734 128.624 310.351L127.914 315.109L117.713 315.945C98.2648 317.54 75.3449 326.295 69.9542 334.19C62.5734 344.999 71.2492 356.232 85.6536 354.513C95.5984 353.326 116.295 338.348 125.281 325.835C127.815 322.306 130.067 319.419 130.284 319.42C131.723 319.423 141.128 323.58 141.121 324.208C141.088 327.196 128.78 344.906 122.523 350.967C109.28 363.801 94.979 368.462 74.7543 366.537C69.9796 366.083 60.1252 365.235 52.8563 364.652L39.6396 363.593L42.3104 359.508C43.7791 357.26 47.0797 350.686 49.646 344.899C60.532 320.353 70.8881 310.718 92.0813 305.414C99.1981 303.633 127.77 303.002 128.738 304.604ZM445.903 307.031C465.318 312.546 473.652 320.624 484.181 344.134C487.55 351.659 491.528 359.449 493.018 361.443L495.729 365.07L488.75 365.061C484.912 365.056 477.855 365.641 473.067 366.36C468.28 367.079 458.55 367.677 451.447 367.688C439.896 367.708 437.582 367.281 429.554 363.65C415.875 357.466 399.518 339.94 395.368 327.023C394.579 324.567 395.277 323.787 399.78 322.096C402.722 320.991 405.315 320.086 405.539 320.086C405.765 320.087 407.546 322.61 409.5 325.692C413.851 332.558 428.98 346.103 438.479 351.638C447.983 357.175 456.041 357.278 462.681 351.949C466.627 348.781 467.415 347.24 467.337 342.86C467.205 335.416 462.895 330.635 451.871 325.698C440.867 320.771 429.73 317.883 417.038 316.67C408.084 315.813 408.035 315.784 407.261 311.16C406.832 308.603 406.827 306.012 407.25 305.402C408.838 303.106 436.138 304.257 445.903 307.031ZM149.699 308.45C150.222 312.016 146.367 313.4 143.433 310.699C141.671 309.075 141.564 308.232 142.94 306.746C145.362 304.131 149.207 305.1 149.699 308.45ZM393.312 308.865C393.283 311.468 392.543 312.155 389.775 312.148C387.85 312.144 385.998 311.399 385.662 310.493C384.58 307.588 386.319 305.557 389.882 305.565C392.613 305.572 393.34 306.272 393.312 308.865ZM330.657 320.658C337.578 336.63 335.716 358.072 326.092 373.212C322.657 378.617 321.299 379.708 318.482 379.324C306.905 377.75 286.23 363.366 278.906 351.792C275.289 346.075 269.383 330.377 270.48 329.392C271.904 328.113 291.117 335.194 297.827 339.47C307.057 345.352 310.915 352.019 310.856 361.989C310.817 368.856 311.016 369.252 314.696 369.648C317.391 369.938 319.056 369.268 320.146 367.452C322.166 364.09 321.019 361.412 316.807 359.65C313.403 358.225 308.822 348.477 308.978 342.988C309.186 335.62 322.534 311.394 325.828 312.404C326.622 312.647 328.794 316.361 330.657 320.658ZM201.187 321.622C199.381 326.355 197.642 330.462 197.321 330.75C197.001 331.037 194.227 329.334 191.158 326.964L185.576 322.654L194.911 317.927C200.047 315.327 204.297 313.158 204.358 313.108C204.42 313.057 202.993 316.889 201.187 321.622ZM344.848 320.754L350.252 322.828L344.499 327.252C337.909 332.319 336.587 332.685 336.534 329.465C336.499 327.374 334.7 322.219 331.614 315.366C330.537 312.979 330.772 313.005 334.951 315.739C337.423 317.357 341.877 319.613 344.848 320.754ZM127.421 318.086C128.695 319.994 119.97 330.826 110.617 338.948C93.949 353.421 80.7756 357.139 72.6553 349.664C67.952 345.334 67.4918 341.997 70.7607 335.932C73.2549 331.305 78.6447 327.849 90.282 323.414C103.378 318.42 125.523 315.244 127.421 318.086ZM427.655 319.576C441.055 322.1 459.254 330.029 463.156 335.046C467.44 340.555 466.81 347.504 461.668 351.478C455.16 356.507 446.37 355.206 434.669 347.481C421.948 339.084 407.629 324.095 407.682 319.236C407.708 316.867 413.817 316.971 427.655 319.576ZM280.03 323.93C285.517 326.949 292.805 331.754 296.227 334.607L302.447 339.797L296.699 336.74C293.538 335.059 286.075 332.106 280.114 330.177C270.002 326.905 269.25 326.395 268.87 322.555C268.644 320.291 268.819 318.439 269.256 318.44C269.695 318.441 274.544 320.912 280.03 323.93ZM167.624 335.972C173.233 341.188 182.31 348.201 187.793 351.559C196.145 356.67 198.169 358.662 200.265 363.82L202.767 369.98L195.405 369.169C174.608 366.876 145.703 344.318 143.017 328.283L142.253 323.72L149.839 325.105C156.522 326.325 158.643 327.62 167.624 335.972ZM184.588 325.508C186.857 328.029 186.878 328.016 177.304 330.501C170.021 332.39 169.143 332.385 166.795 330.43C163.573 327.746 164.316 327.1 172.724 325.275C182.13 323.233 182.547 323.241 184.588 325.508ZM358.86 330.797C360.807 337.052 360.787 337.888 358.643 340.013C357.347 341.298 355.849 342.349 355.318 342.347C354.04 342.344 350.989 326.47 351.988 325.027C354.028 322.08 356.897 324.49 358.86 330.797ZM364.76 326.053C367.669 327.078 367.662 332.326 364.752 334.497C362.109 336.468 362.123 336.48 360.171 330.18C358.564 324.99 359.459 324.184 364.76 326.053ZM391.663 327.118C391.652 328.107 389.284 333.113 386.399 338.245C380.128 349.403 368.317 359.644 354.383 366.006C343.677 370.897 330.728 373.002 332.196 369.616C332.681 368.498 333.866 365.302 334.83 362.514C336.281 358.324 338.236 356.534 346.093 352.2C351.322 349.316 360.728 342.43 366.995 336.897C373.262 331.365 379.588 326.562 381.052 326.222C386.699 324.914 391.683 325.334 391.663 327.118ZM372.834 327.088C372.831 327.36 371.843 328.319 370.638 329.218C368.843 330.557 368.452 330.465 368.471 328.715C368.484 327.541 369.472 326.582 370.667 326.585C371.862 326.588 372.837 326.814 372.834 327.088ZM352.054 336.795C353.315 343.191 353.174 343.921 350.345 345.713C347.451 347.544 347.207 347.439 346.386 344.006C344.818 337.449 345.198 329.407 347.106 328.777C349.791 327.892 350.538 329.101 352.054 336.795ZM190.963 330.557C194.007 332.602 193.6 332.917 183.398 336.403C176.015 338.926 175.82 338.927 173.416 336.481C170.511 333.522 170.267 333.74 179.428 331.111C188.702 328.447 187.884 328.487 190.963 330.557ZM344.39 340.416C345.346 347.965 343.87 351.536 339.8 351.526C337.115 351.52 337.122 334.939 339.807 333.965C343.204 332.733 343.465 333.101 344.39 340.416ZM397.377 334.418C397.369 335.068 399.609 338.686 402.355 342.459C407.219 349.138 407.633 351.691 403.851 351.681C402.83 351.679 397.894 353.521 392.883 355.773C382.168 360.591 367.221 372.704 360.58 381.951L355.876 388.502L349.019 382.854C345.248 379.748 342.1 376.901 342.023 376.528C341.946 376.154 345.317 374.757 349.513 373.422C365.779 368.25 384.364 353.74 391.224 340.854C394.856 334.034 397.41 331.362 397.377 334.418ZM156.018 355.844C165.095 364.059 182.769 373.529 189.055 373.544C190.806 373.548 192.646 373.927 193.143 374.384C193.931 375.11 180.82 386.731 178.109 387.711C177.551 387.912 174.732 384.532 171.842 380.199C164.909 369.804 152.671 359.933 139.346 353.989C133.4 351.336 128.337 349.054 128.094 348.916C127.849 348.779 130.073 345.285 133.033 341.15L138.415 333.631L142.755 340.699C145.143 344.588 151.111 351.403 156.018 355.844ZM196.748 336.689C196.736 337.752 193.965 339.991 190.591 341.666C185.692 344.097 183.862 344.421 181.521 343.27C177.134 341.113 177.905 339.89 185.52 336.925C193.274 333.907 196.779 333.832 196.748 336.689ZM273.991 349.877C275.555 352.589 275.328 352.687 267.595 352.668C263.186 352.657 259.58 352.464 259.583 352.238C259.585 352.011 260.875 349.456 262.448 346.56C264.02 343.664 265.802 339.574 266.406 337.473C267.481 333.731 267.556 333.793 269.936 340.358C271.274 344.048 273.099 348.331 273.991 349.877ZM80.2606 337.53C77.9812 341.324 83.0426 346.942 86.8503 344.845C88.4197 343.982 89.5092 341.846 89.534 339.585C89.5685 336.435 88.9059 335.708 85.6942 335.362C83.0091 335.073 81.3347 335.741 80.2606 337.53ZM445.233 338.442C443.26 341.724 444.479 344.852 448.147 345.923C452.051 347.062 455.439 344.151 454.962 340.069C454.439 335.6 447.623 334.461 445.233 338.442ZM88.0768 340.384C88.0543 342.439 87.1037 343.801 85.4972 344.077C82.624 344.572 80.7945 341.415 82.1467 338.297C83.5644 335.029 88.118 336.63 88.0768 340.384ZM453.509 340.772C454.013 344.228 449.678 346.035 446.937 343.509C445.848 342.509 445.424 340.709 445.975 339.44C447.363 336.235 452.992 337.231 453.509 340.772ZM197.266 346.198C197.487 348.484 191.57 349.893 188.688 348.24C184.779 345.998 184.991 345.393 190.523 343.016C194.834 341.165 195.337 341.174 196.214 343.121C196.742 344.295 197.215 345.68 197.266 346.198ZM197.313 351.181C197.305 351.905 196.686 352.496 195.936 352.495C195.185 352.493 194.176 351.898 193.692 351.173C193.207 350.447 193.828 349.856 195.069 349.859C196.311 349.862 197.321 350.457 197.313 351.181ZM139.343 355.204C150.437 360.295 167.564 374.923 172.723 383.712L176.478 390.11L172.111 395.954C163.588 407.363 161.097 422.121 165.234 436.685C167.927 446.165 167.992 445.908 162.9 445.896C150.466 445.866 122.715 437.996 111.921 431.439L107.823 428.95L114.491 424.824L121.158 420.7L123.252 425.371C124.403 427.94 126.282 430.372 127.429 430.777C130.247 431.771 142.992 425.815 148.36 420.996C155.793 414.324 158.018 408.569 157.37 397.697C156.947 390.596 155.73 386.139 152.676 380.518C147.65 371.267 142.722 369.173 125.422 368.938C115.984 368.81 112.686 369.332 107.63 371.751C99.9518 375.423 93.3115 383.424 90.239 392.702C87.5096 400.95 88.5671 403.048 96.1221 404.356L100.948 405.193L97.7876 410.979C96.0493 414.161 94.0988 416.763 93.4499 416.762C91.8234 416.758 83.3956 404.298 79.6374 396.34C76.9889 390.733 71.0739 371.955 71.1036 369.251C71.1089 368.767 76.6375 368.362 83.3901 368.351C94.0158 368.332 96.8953 367.796 104.798 364.371C109.82 362.194 116.559 358.318 119.773 355.76C122.988 353.2 126.655 351.087 127.921 351.063C129.189 351.039 134.329 352.902 139.343 355.204ZM417.632 358.266C429.407 366.99 437.589 369.415 454.666 369.242L468.162 369.105L467.145 373.306C464.34 384.901 454.244 402.927 444.637 413.494L439.415 419.239L436.164 413.473C434.377 410.304 432.888 407.359 432.857 406.929C432.825 406.501 435.387 405.454 438.55 404.603C441.712 403.753 444.581 402.629 444.924 402.105C446.179 400.195 441.662 387.216 437.921 381.99C429.896 370.778 415.63 366.849 396.665 370.63L385.86 372.784L381.914 380.306C374.051 395.295 373.537 405.257 380.074 415.848C383.719 421.754 395.331 429.81 402.505 431.41C406.162 432.226 406.74 431.829 409.072 426.907C410.479 423.937 411.955 421.528 412.353 421.552C412.751 421.576 415.598 423.643 418.68 426.147L424.283 430.699L417.561 433.374C407.916 437.212 390.741 440.926 377.879 441.953L366.779 442.839L368.14 437.047C368.889 433.862 369.536 426.811 369.578 421.38C369.654 411.409 366.966 403.902 359.551 393.383C357.083 389.881 357.097 389.597 359.919 384.898C365.465 375.664 381.016 363.034 394.086 357.148C400.755 354.145 406.786 351.689 407.487 351.69C408.186 351.692 412.752 354.651 417.632 358.266ZM260.823 360.222C255.761 367.766 253.452 369.75 249.752 369.741C247.883 369.737 246.359 369.421 246.363 369.04C246.367 368.66 248.823 365.407 251.82 361.812C255.677 357.187 258.273 355.279 260.701 355.285L264.13 355.293L260.823 360.222ZM268.036 363.202C263.341 371.053 261.854 372.064 258.165 369.916C255.124 368.145 264.99 355.35 269.411 355.33L272.754 355.314L268.036 363.202ZM278.768 357.03C280.037 360.121 273.424 370.42 269.879 370.87C265.616 371.408 265.783 369.572 270.703 361.758C274.734 355.358 277.432 353.777 278.768 357.03ZM221.601 361.622C224.441 363.274 222.947 367.637 219.385 368.092C215.749 368.556 213.731 364.889 216.173 362.251C218.105 360.165 218.934 360.068 221.601 361.622ZM285.472 364.515C289.174 368.166 289.551 369.838 286.668 369.831C286.004 369.829 285.452 368.79 285.443 367.524C285.425 365.329 285.353 365.328 283.922 367.52C283.096 368.784 280.834 369.816 278.894 369.812C275.37 369.803 275.37 369.802 277.837 365.201C279.194 362.67 280.575 360.599 280.904 360.6C281.233 360.601 283.289 362.362 285.472 364.515ZM318.853 362.667C320.274 364.246 320.265 365.044 318.81 366.617C315.147 370.572 310.021 367.526 312.135 362.651C312.605 361.566 313.908 360.68 315.031 360.683C316.153 360.686 317.873 361.578 318.853 362.667ZM67.6519 367.674C68.5252 368.208 70.0316 371.906 70.9989 375.892C73.8937 387.825 80.4948 402.553 86.989 411.568C92.3362 418.992 94.0874 424.663 91.0299 424.656C89.1876 424.651 82.077 415.44 76.5246 405.865C68.6778 392.333 61.0923 366.6 64.976 366.68C65.5741 366.694 66.7771 367.14 67.6519 367.674ZM475.198 370.149C475.156 374.062 469.231 390.008 465.127 397.254C458.243 409.411 443.26 427.291 441.023 426.022C438.45 424.561 440.17 420.723 446.778 413.189C455.564 403.171 464.011 388.222 467.416 376.667C469.448 369.765 470.679 367.643 472.649 367.648C474.212 367.651 475.215 368.635 475.198 370.149ZM134.187 370.902C148.143 373.279 148.156 373.341 136.884 383.819C120.934 398.647 106.58 405.237 96.0854 402.551C90.4279 401.103 89.8687 396.757 94.1944 387.837C99.359 377.181 110.249 370.358 123.338 369.576C124.587 369.501 129.469 370.098 134.187 370.902ZM426.137 374.225C432.904 377.396 439.22 385.12 441.6 393.139C443.833 400.664 442.962 402.588 436.862 403.612C425.176 405.572 406.262 395.718 394.291 381.435L388.182 374.145L393.661 372.869C407.414 369.67 417.298 370.082 426.137 374.225ZM267.314 373.619C275.28 373.638 284.484 373.188 287.768 372.619C292.783 371.749 294.697 372.103 299.731 374.834C306.842 378.692 306.22 379.998 294.923 384.925C278.37 392.142 252.293 391.956 236.111 384.505C231.783 382.511 228.071 380.288 227.86 379.563C227.649 378.838 230.544 376.724 234.295 374.865C239.999 372.036 242.066 371.655 246.97 372.535C250.194 373.112 259.348 373.6 267.314 373.619ZM206.931 376.488L209.82 380.712L200.776 389.318C191.649 398 181.212 413.663 179.086 421.866C176.477 431.925 183.213 440.678 193.582 440.704C197.95 440.714 200.178 439.777 204.05 436.301C211.338 429.759 214.513 418.902 215.048 398.692L215.481 382.305L220.785 380.653C225.839 379.08 226.152 379.155 227.398 382.218C232.912 395.768 232.345 417.913 226.177 429.907C220.914 440.14 215.746 444.711 196.89 455.816C188.07 461.01 179.918 466.275 178.775 467.517C176.904 469.548 176.462 468.943 174.356 461.466C173.067 456.897 170.265 447.612 168.126 440.831C161.577 420.063 164.035 408.015 178.322 390.887C183.499 384.68 199.892 372.254 202.893 372.261C203.523 372.263 205.34 374.164 206.931 376.488ZM338.893 376.636C349.008 383.369 358.936 393.867 363.744 402.909C367.835 410.605 368.262 412.573 368.027 422.669C367.817 431.754 366.73 436.716 362.309 448.791C359.308 456.989 356.835 465.241 356.814 467.127L356.776 470.557L352.831 467.163C350.661 465.294 343.016 460.459 335.843 456.417C321.032 448.069 310.517 438.493 306.212 429.429C301.054 418.576 301.398 395.542 306.907 382.719C308.363 379.331 308.609 379.262 313.609 380.853L318.799 382.505L319.007 400.236C319.254 421.053 321.696 430.05 328.9 436.682C335.37 442.639 343.748 442.856 350.011 437.234C353.563 434.046 354.296 432.319 354.342 427.04C354.433 416.706 345.184 400.808 331.465 387.714L324.55 381.114L327.583 376.842C329.252 374.492 331.106 372.571 331.705 372.573C332.304 372.574 335.539 374.403 338.893 376.636ZM113.717 375.205C107.631 377.59 99.9844 384.737 96.7487 391.066C92.1055 400.146 93.711 400.745 98.7495 391.811C102.138 385.801 105.391 382.152 109.874 379.33C115.685 375.673 117.173 375.35 127.815 375.437C134.196 375.489 138.212 375.096 136.739 374.564C132.323 372.967 118.44 373.355 113.717 375.205ZM396.203 375.416C394.297 376.187 396.3 376.341 402.01 375.861C406.805 375.458 413.411 375.794 416.692 376.606C424.355 378.506 433.237 386.64 436.581 394.82C437.992 398.273 439.407 400.412 439.723 399.574C440.531 397.436 434.887 387.383 430.361 382.895C424.304 376.889 416.957 374.084 407.499 374.165C402.886 374.205 397.803 374.768 396.203 375.416ZM152.081 383C156.868 393.37 157.329 404.693 153.266 412.159C149.751 418.62 141.94 424.949 133.628 428.073C128.565 429.976 128.387 429.939 125.931 426.473C121.885 420.761 122.886 409.919 128.403 399.706C132.56 392.011 145.721 376.137 147.978 376.096C148.478 376.087 150.324 379.194 152.081 383ZM394.632 384.549C398.251 388.889 403.169 396.331 405.563 401.088C409.349 408.613 409.826 410.847 409.226 418.256C408.312 429.537 406.303 431.399 398.521 428.18C390.374 424.809 383.776 419.33 380.345 413.086C377.914 408.661 377.542 406.099 378.219 398.434C379.033 389.221 383.894 376.649 386.638 376.656C387.416 376.658 391.014 380.21 394.632 384.549ZM146.283 381.838C146.28 382.112 147.231 384.464 148.398 387.068C153.923 399.395 148.931 412.814 135.723 421.143C127.673 426.218 126.983 427.475 134.05 424.187C139.058 421.857 148.498 412.62 150.404 408.187C152.519 403.262 152.263 391.115 149.933 385.915C148.215 382.082 146.303 379.947 146.283 381.838ZM384.29 386.196C382.81 388.723 381.705 393.697 381.584 398.368C381.42 404.752 382.138 407.461 385.328 412.489C389.12 418.462 399.881 426.725 403.867 426.724C404.918 426.724 403.511 425.474 400.74 423.945C393.394 419.895 389.314 416.136 386.262 410.611C382.958 404.632 382.817 393.363 385.959 386.69C388.75 380.766 387.657 380.444 384.29 386.196ZM213.705 387.618C215.08 394.658 213.081 415.296 210.224 423.558C207.002 432.876 199.978 439.402 193.192 439.386C182.149 439.359 177.349 430.692 181.857 418.915C183.304 415.133 186.771 408.635 189.563 404.473C195.136 396.163 208.401 382.807 211.076 382.814C212.006 382.816 213.189 384.978 213.705 387.618ZM327.207 385.674C332.928 389.417 342.428 401.249 348.077 411.661C354.229 423.005 354.512 429.908 349.064 435.712C340.824 444.49 328.007 439.117 323.233 424.886C319.527 413.837 318.926 383.075 322.417 383.084C322.876 383.085 325.031 384.251 327.207 385.674ZM302.482 391.923C301.759 394.637 301.126 399.148 301.076 401.948C300.974 407.654 301.868 407.556 286.54 403.528C273 399.971 249.504 401.061 235.672 405.887C233.741 406.56 233.196 405.296 232.491 398.515C232.023 394.013 231.834 390.156 232.071 389.943C232.308 389.729 236.698 390.78 241.825 392.277C254.958 396.113 276.539 396.135 289.861 392.326C295.221 390.794 300.005 388.965 300.492 388.261C302.561 385.27 303.698 387.361 302.482 391.923ZM126.465 399.604C124.462 403.154 122.365 408.888 121.806 412.347C121.094 416.747 119.651 419.545 117.005 421.661C112.566 425.211 96.9641 432.57 93.8907 432.562C90.713 432.555 92.8094 423.127 98.1688 413.323C102.134 406.073 103.179 405.122 108.743 403.71C112.141 402.848 118.2 400.128 122.21 397.666C126.22 395.205 129.638 393.181 129.804 393.17C129.971 393.16 128.468 396.055 126.465 399.604ZM423.611 404.076C429.745 406.17 431.053 407.338 434.506 413.818C439.205 422.638 441.2 433.41 438.13 433.383C434.813 433.354 422.018 427.424 417.204 423.685C413.773 421.021 412.48 418.695 411.774 413.922C411.264 410.475 409.332 404.533 407.478 400.715L404.108 393.776L410.374 397.737C413.819 399.916 419.775 402.767 423.611 404.076ZM292.302 406.361L300.24 408.953L301.211 416.55C303.08 431.165 311.551 443.557 325.16 451.579C329.095 453.899 332.31 456.258 332.304 456.822C332.285 458.585 314.328 468.468 304.846 471.932C295.458 475.364 277.139 479.641 276.065 478.653C275.565 478.192 278.439 466.019 279.299 464.959C279.437 464.79 282.049 465.821 285.102 467.251C291.933 470.45 293.337 469.611 297.454 459.876C305.571 440.686 296.537 423.964 273.058 414.72L266.499 412.137L258.753 415.365C241.042 422.748 232.616 432.835 232.489 446.81C232.419 454.348 237 466.9 240.559 468.921C241.314 469.351 244.326 468.603 247.252 467.261C250.177 465.92 252.806 465.205 253.092 465.673C253.38 466.141 254.03 469.317 254.536 472.731L255.457 478.937L247.796 476.891C237.032 474.017 221.326 466.733 212.259 460.411C208.027 457.461 204.272 455.309 203.915 455.629C202.922 456.522 215.955 464.936 226.424 470.161C231.574 472.731 240.513 476.137 246.286 477.731C252.809 479.531 257.331 481.575 258.227 483.129C259.362 485.097 259.18 485.628 257.364 485.624C247.234 485.599 220.652 474.863 206.488 465.078C201.589 461.693 197.601 458.529 197.628 458.047C197.655 457.565 200.35 455.697 203.617 453.894C212.446 449.023 223.098 439.102 226.798 432.305C228.594 429.004 230.824 422.308 231.755 417.423C232.685 412.539 233.664 408.284 233.93 407.968C234.196 407.653 238.812 406.329 244.187 405.027C257.004 401.922 280.718 402.579 292.302 406.361ZM265.564 427.561C263.987 447.777 257.013 462.025 246.837 465.816C241.152 467.934 239.056 466.464 236.075 458.265C231.669 446.145 234.622 433.766 243.754 426.072C247.95 422.539 262.785 414.608 265.273 414.568C266.02 414.557 266.144 420.124 265.564 427.561ZM277.952 418.762C293.262 426.257 300.427 437.255 298.573 450.414C297.562 457.594 292.434 467.276 289.647 467.269C281.83 467.25 271.486 453.594 268.777 439.719C267.265 431.975 267.055 414.549 268.473 414.552C268.96 414.553 273.225 416.448 277.952 418.762ZM190.277 420.508C188.537 422.067 189.181 427.162 191.323 428.796C193.833 430.712 198.753 429.547 199.966 426.748C201.956 422.161 194.083 417.09 190.277 420.508ZM252.587 423.818C242.956 429.557 237.661 439.39 238.625 449.749C239.313 457.141 241.88 465.439 243.132 464.315C243.483 464.001 242.803 460.807 241.62 457.216C237.196 443.782 242.437 431.039 255.139 424.342C258.762 422.432 261.729 420.629 261.733 420.336C261.747 418.993 258.809 420.111 252.587 423.818ZM271.872 420.294C271.869 420.551 274.845 422.485 278.485 424.589C290.403 431.483 294.923 442.813 291.004 455.974C289.74 460.219 289.001 463.963 289.361 464.294C290.428 465.276 294.712 451.347 294.69 446.963C294.665 441.707 291.536 433.589 288.196 430.119C283.24 424.97 271.896 418.142 271.872 420.294ZM334.194 421.89C332.067 424.186 333.313 428.65 336.383 429.732C339.479 430.824 344.205 428.269 344.235 425.486C344.289 420.533 337.651 418.156 334.194 421.89ZM198.594 423.175C199.767 426.031 196.233 429.204 193.106 428.102C190.694 427.251 189.857 423.49 191.711 421.828C193.562 420.164 197.689 420.972 198.594 423.175ZM342.329 423.392C342.799 424.535 342.106 426.438 340.789 427.62C338.572 429.609 338.221 429.608 336.047 427.608C333.116 424.909 334.515 421.295 338.487 421.305C340.131 421.309 341.859 422.248 342.329 423.392ZM118.659 435.906C133.14 442.431 143.942 445.364 158.491 446.725C167.15 447.536 170.088 448.744 170.12 451.509C170.138 453.167 156.436 452.578 145.475 450.451C130.465 447.538 107.778 438.658 100.863 432.989C100.273 432.505 103.645 430.028 104.965 429.976C105.233 429.966 111.395 432.634 118.659 435.906ZM431.051 433.513C431.029 435.545 413.582 442.657 402.163 445.293C396.058 446.7 384.963 448.208 377.506 448.642C364.774 449.383 363.984 449.281 364.5 446.962C364.971 444.851 367.315 444.27 380.601 442.964C396.093 441.443 411.097 437.879 420.724 433.437C425.65 431.163 431.077 431.204 431.051 433.513ZM274.358 458.811L277.728 464.221L275.087 472.771C272.303 481.784 267.788 489.599 265.369 489.593C263.201 489.588 257.94 479.328 255.906 471.138C254.197 464.257 254.281 463.657 257.572 459.211C259.478 456.636 262.246 451.155 263.723 447.03L266.408 439.532L268.697 446.465C269.957 450.279 272.503 455.835 274.358 458.811ZM337.827 459.321C343.014 462.341 311.003 478.54 290.867 483.085C284.551 484.51 277.499 485.672 275.196 485.667C271.682 485.658 271.236 485.298 272.414 483.422C273.307 481.998 278.704 480.113 287.296 478.222C302.062 474.972 318.085 468.595 327.174 462.349C333.488 458.011 334.893 457.612 337.827 459.321Z" fill="#962B12" fill-opacity="0.89"></path> </svg> 